<svg width="48" height="49" viewBox="0 0 48 49" fill="none" xmlns="http://www.w3.org/2000/svg">
<rect x="45.5427" y="6.41638" width="35.6947" height="43.0854" rx="5" transform="rotate(90 45.5427 6.41638)" fill="#FF983E"/>
<circle cx="38.8055" cy="34.7788" r="2.33237" fill="white" stroke="black" stroke-width="2" stroke-linejoin="round"/>
<path d="M32.231 6.41638L32.231 42.1111" stroke="black" stroke-width="2"/>
<path d="M41.8057 11.5629H35.8057" stroke="black" stroke-width="2" stroke-linecap="round"/>
<path d="M41.8057 15.5629H35.8057" stroke="black" stroke-width="2" stroke-linecap="round"/>
<circle cx="17.3441" cy="24.2638" r="11.579" stroke="black" stroke-width="2"/>
<path d="M14.3674 19.1507C14.3674 22.1117 17.344 24.4409 17.344 24.4409C17.344 24.4409 20.3207 22.1117 20.3207 19.1507C20.3207 17.5068 18.9879 16.1742 17.344 16.1742C15.7002 16.1742 14.3674 17.5068 14.3674 19.1507Z" fill="white" stroke="black" stroke-width="2" stroke-linejoin="round"/>
<path d="M14.3674 29.3769C14.3674 26.4159 17.344 24.0867 17.344 24.0867C17.344 24.0867 20.3207 26.4159 20.3207 29.3769C20.3207 31.0208 18.9879 32.3534 17.344 32.3534C15.7002 32.3534 14.3674 31.0208 14.3674 29.3769Z" fill="white" stroke="black" stroke-width="2" stroke-linejoin="round"/>
<path d="M22.4573 21.2872C19.4963 21.2872 17.1672 24.2638 17.1672 24.2638C17.1672 24.2638 19.4963 27.2405 22.4573 27.2405C24.1012 27.2405 25.4338 25.9077 25.4338 24.2638C25.4338 22.62 24.1012 21.2872 22.4573 21.2872Z" fill="white" stroke="black" stroke-width="2" stroke-linejoin="round"/>
<path d="M12.2311 21.2872C15.1922 21.2872 17.5213 24.2638 17.5213 24.2638C17.5213 24.2638 15.1922 27.2405 12.2311 27.2405C10.5872 27.2405 9.25464 25.9077 9.25464 24.2638C9.25464 22.62 10.5872 21.2872 12.2311 21.2872Z" fill="white" stroke="black" stroke-width="2" stroke-linejoin="round"/>
<circle cx="17.3442" cy="24.2638" r="1.97263" fill="white" stroke="black" stroke-width="2" stroke-linejoin="round"/>
<rect x="45.5427" y="6.41638" width="35.6947" height="43.0854" rx="5" transform="rotate(90 45.5427 6.41638)" stroke="black" stroke-width="2"/>
</svg>
