<svg width="48" height="48" viewBox="0 0 48 48" fill="none" xmlns="http://www.w3.org/2000/svg">
<ellipse cx="24.0004" cy="15.3546" rx="7.91126" ry="8.28548" fill="#FF983E" stroke="black" stroke-width="2" stroke-linecap="round" stroke-linejoin="round"/>
<path d="M35.645 15.3545C35.645 8.61915 30.4315 3.15906 24.0004 3.15906C17.5692 3.15906 12.3557 8.61915 12.3557 15.3545" stroke="black" stroke-width="2" stroke-linecap="round" stroke-linejoin="round"/>
<path d="M41.015 38.8336C37.2331 32.8578 31.0216 28.9597 24.0001 28.9597C16.9786 28.9597 10.7671 32.8578 6.98511 38.8337C6.98511 38.8337 9.30488 45.8408 24.0001 45.8408C38.6952 45.8408 41.015 38.8336 41.015 38.8336Z" fill="#FF983E" stroke="black" stroke-width="2" stroke-linecap="round" stroke-linejoin="round"/>
<path d="M14.3748 11.2466C15.3216 11.2466 16.0891 12.0141 16.0891 12.9609L16.0891 17.7484C16.0891 18.6951 15.3216 19.4626 14.3748 19.4626L14.1971 19.4626C11.9283 19.4626 10.0891 17.6234 10.0891 15.3546C10.0891 13.0858 11.9283 11.2466 14.1971 11.2466L14.3748 11.2466Z" fill="#FF983E" stroke="black" stroke-width="2"/>
<path d="M33.8036 11.2466C36.0724 11.2466 37.9116 13.0858 37.9116 15.3546C37.9116 17.6234 36.0724 19.4626 33.8036 19.4626L33.6259 19.4626C32.6791 19.4626 31.9116 18.6951 31.9116 17.7484L31.9116 12.9609C31.9116 12.0141 32.6791 11.2466 33.6259 11.2466L33.8036 11.2466Z" fill="#FF983E" stroke="black" stroke-width="2"/>
</svg>
