<svg width="49" height="48" viewBox="0 0 49 48" fill="none" xmlns="http://www.w3.org/2000/svg">
<g clip-path="url(#clip0_141_9836)">
<path d="M8.14648 20.7487C8.14648 17.3884 8.14648 15.7082 8.80045 14.4247C9.37569 13.2958 10.2936 12.3779 11.4225 11.8026C12.706 11.1487 14.3862 11.1487 17.7465 11.1487H31.8934C35.2537 11.1487 36.9338 11.1487 38.2173 11.8026C39.3463 12.3779 40.2642 13.2958 40.8394 14.4247C41.4934 15.7082 41.4934 17.3884 41.4934 20.7487V26.8734C41.4934 31.9139 41.4934 34.4341 40.5124 36.3593C39.6496 38.0528 38.2727 39.4296 36.5793 40.2924C34.6541 41.2734 32.1338 41.2734 27.0934 41.2734H22.5465C17.506 41.2734 14.9858 41.2734 13.0606 40.2924C11.3671 39.4296 9.99029 38.0528 9.12743 36.3593C8.14648 34.4341 8.14648 31.9139 8.14648 26.8734V20.7487Z" fill="#FF983E" stroke="black" stroke-width="2"/>
<path d="M46.1883 19.9625H41.4934V27.4503L45.8443 24.3762C46.8623 23.6569 47.4675 22.4882 47.4675 21.2418C47.4675 20.5353 46.8948 19.9625 46.1883 19.9625Z" stroke="black" stroke-width="2"/>
<path d="M3.45161 19.9625H8.14648V27.4503L3.79554 24.3762C2.77761 23.6569 2.17234 22.4882 2.17234 21.2418C2.17234 20.5353 2.74509 19.9625 3.45161 19.9625Z" stroke="black" stroke-width="2"/>
<path d="M41.024 18.3339L8.14648 18.3932" stroke="black" stroke-width="2"/>
<circle cx="24.8199" cy="8.93765" r="2.21097" stroke="black" stroke-width="2"/>
<path d="M21.4979 37.2735H20.1465C17.3462 37.2735 15.9461 37.2735 14.8765 36.7285C13.9357 36.2492 13.1708 35.4843 12.6915 34.5435C12.1465 33.4739 12.1465 32.0738 12.1465 29.2735V28.2122" stroke="black" stroke-width="2" stroke-linecap="round"/>
</g>
<defs>
<clipPath id="clip0_141_9836">
<rect width="48" height="48" fill="white" transform="translate(0.819824)"/>
</clipPath>
</defs>
</svg>
