<svg width="16" height="16" viewBox="0 0 16 16" fill="none" xmlns="http://www.w3.org/2000/svg">
<g clip-path="url(#clip0_269_12007)">
<path d="M2.41424 6.40281C2.696 6.23492 2.83687 6.15098 2.98714 6.09163C3.12055 6.03894 3.25924 6.00075 3.40081 5.97773C3.56028 5.95179 3.72427 5.95179 4.05225 5.95179H11.948C12.276 5.95179 12.44 5.95179 12.5995 5.97773C12.741 6.00075 12.8797 6.03894 13.0131 6.09163C13.1634 6.15098 13.3043 6.23492 13.586 6.40281L14.5149 6.95626C15.4052 7.48675 15.8503 7.752 15.9119 7.99126C15.9651 8.1977 15.9048 8.41685 15.7534 8.56697C15.578 8.74096 15.0598 8.74096 14.0235 8.74096H1.97681C0.940452 8.74096 0.422272 8.74096 0.246842 8.56697C0.09548 8.41685 0.0351366 8.1977 0.0883239 7.99126C0.149969 7.752 0.595115 7.48675 1.48541 6.95626L2.41424 6.40281Z" fill="black"/>
<path d="M3.86094 3.39709C3.63087 3.9208 3.51584 4.18265 3.55461 4.39391C3.58849 4.57853 3.6951 4.74182 3.85051 4.8471C4.02833 4.96756 4.31434 4.96756 4.88636 4.96756H11.1137C11.6857 4.96756 11.9717 4.96756 12.1495 4.8471C12.3049 4.74182 12.4115 4.57853 12.4454 4.39391C12.4842 4.18265 12.3691 3.9208 12.1391 3.39709L11.376 1.66017C11.1866 1.22888 11.0918 1.01323 10.937 0.901636C10.8012 0.803764 10.6348 0.757802 10.468 0.772085C10.2778 0.788372 10.0858 0.924814 9.70183 1.1977L8.92685 1.74844C8.59325 1.98552 8.42645 2.10406 8.24464 2.14993C8.08407 2.19044 7.91595 2.19044 7.75538 2.14993C7.57357 2.10406 7.40677 1.98552 7.07316 1.74844L6.29818 1.1977C5.91419 0.924814 5.7222 0.788372 5.53202 0.772085C5.36523 0.757802 5.19884 0.803764 5.06303 0.901636C4.90818 1.01323 4.81344 1.22888 4.62398 1.66017L3.86094 3.39709Z" fill="black"/>
<circle cx="12.256" cy="12.448" r="2.18667" stroke="black" stroke-width="1.5"/>
<circle cx="3.74429" cy="12.448" r="2.18667" stroke="black" stroke-width="1.5"/>
<path d="M6.20874 12.4482V12.4482C7.27112 11.655 8.72871 11.655 9.79109 12.4482V12.4482" stroke="black" stroke-width="1.5"/>
</g>
<defs>
<clipPath id="clip0_269_12007">
<rect width="16" height="16" fill="white"/>
</clipPath>
</defs>
</svg>
