<svg width="16" height="16" viewBox="0 0 16 16" fill="none" xmlns="http://www.w3.org/2000/svg">
<g clip-path="url(#clip0_269_11980)">
<circle cx="12.256" cy="12.6623" r="2.18667" stroke="black" stroke-width="1.5"/>
<circle cx="3.74429" cy="12.6623" r="2.18667" stroke="black" stroke-width="1.5"/>
<path d="M6.20874 12.6625V12.6625C7.27112 11.8692 8.72871 11.8692 9.79109 12.6625V12.6625" stroke="black" stroke-width="1.5"/>
<path d="M2.41423 6.40292C2.69598 6.23503 2.83686 6.15109 2.98712 6.09174C3.12053 6.03905 3.25922 6.00086 3.4008 5.97784C3.56027 5.9519 3.72426 5.9519 4.05224 5.9519H11.948C12.276 5.9519 12.44 5.9519 12.5994 5.97784C12.741 6.00086 12.8797 6.03905 13.0131 6.09174C13.1634 6.15109 13.3043 6.23503 13.586 6.40292L14.5148 6.95637C15.4051 7.48686 15.8503 7.75211 15.9119 7.99137C15.9651 8.19781 15.9048 8.41697 15.7534 8.56708C15.578 8.74107 15.0598 8.74107 14.0234 8.74107H1.9768C0.940438 8.74107 0.422258 8.74107 0.246828 8.56708C0.0954664 8.41697 0.0351231 8.19781 0.0883104 7.99137C0.149955 7.75211 0.595101 7.48686 1.48539 6.95637L2.41423 6.40292Z" fill="black"/>
<path d="M3.86106 3.3972C3.63099 3.92091 3.51595 4.18276 3.55472 4.39402C3.5886 4.57864 3.69522 4.74193 3.85063 4.84721C4.02844 4.96767 4.31445 4.96767 4.88647 4.96767H11.1138C11.6858 4.96767 11.9718 4.96767 12.1496 4.84721C12.305 4.74193 12.4116 4.57864 12.4455 4.39402C12.4843 4.18276 12.3693 3.92091 12.1392 3.3972L11.3762 1.66028C11.1867 1.22899 11.092 1.01334 10.9371 0.901746C10.8013 0.803874 10.6349 0.757912 10.4681 0.772195C10.2779 0.788482 10.0859 0.924924 9.70195 1.19781L8.92697 1.74855C8.59336 1.98563 8.42656 2.10417 8.24475 2.15004C8.08418 2.19055 7.91606 2.19055 7.75549 2.15004C7.57369 2.10417 7.40688 1.98563 7.07328 1.74855L6.2983 1.19781C5.91431 0.924924 5.72232 0.788482 5.53214 0.772195C5.36534 0.757912 5.19896 0.803874 5.06315 0.901746C4.90829 1.01334 4.81356 1.22899 4.62409 1.66028L3.86106 3.3972Z" fill="black"/>
</g>
<defs>
<clipPath id="clip0_269_11980">
<rect width="16" height="16" fill="white"/>
</clipPath>
</defs>
</svg>
