<svg width="49" height="48" viewBox="0 0 49 48" fill="none" xmlns="http://www.w3.org/2000/svg">
<g clip-path="url(#clip0_230_8062)">
<path d="M30.915 14.5635C31.3715 12.1825 34.7799 12.1825 35.2363 14.5635L35.6533 16.7393C36.4243 20.7613 39.5698 23.9067 43.5918 24.6777L45.7676 25.0947C48.1485 25.5512 48.1486 28.9595 45.7676 29.416L43.5918 29.833C39.5698 30.604 36.4243 33.7495 35.6533 37.7715L35.2363 39.9473C34.7799 42.3282 31.3715 42.3283 30.915 39.9473L30.498 37.7715C29.727 33.7495 26.5816 30.604 22.5596 29.833L20.3838 29.416C18.0028 28.9595 18.0028 25.5512 20.3838 25.0947L22.5596 24.6777C26.5816 23.9067 29.727 20.7613 30.498 16.7393L30.915 14.5635Z" fill="#FF983E" stroke="black" stroke-width="2"/>
<path d="M10.0781 7.02832C10.493 4.86359 13.592 4.86361 14.0068 7.02832L14.292 8.51953C14.7547 10.9328 16.6424 12.8197 19.0557 13.2822L20.5469 13.5684C22.7114 13.9834 22.7115 17.0821 20.5469 17.4971L19.0557 17.7822C16.6422 18.2448 14.7545 20.1325 14.292 22.5459L14.0068 24.0371C13.5919 26.2017 10.4931 26.2016 10.0781 24.0371L9.79199 22.5459C9.32947 20.1326 7.44252 18.2449 5.0293 17.7822L3.53809 17.4971C1.37336 17.0822 1.37337 13.9832 3.53809 13.5684L5.0293 13.2822C7.44233 12.8196 9.32932 10.9326 9.79199 8.51953L10.0781 7.02832Z" fill="#FF983E" stroke="black" stroke-width="2"/>
</g>
<defs>
<clipPath id="clip0_230_8062">
<rect width="48" height="48" fill="white" transform="translate(0.753418)"/>
</clipPath>
</defs>
</svg>
