<svg width="22" height="22" viewBox="0 0 22 22" fill="none" xmlns="http://www.w3.org/2000/svg">
<g clip-path="url(#clip0_120_4642)">
<path fill-rule="evenodd" clip-rule="evenodd" d="M5.8079 2.51055C7.04274 2.38096 8.8279 2.25596 11.1198 2.25593C13.4118 2.25591 15.197 2.38092 16.4319 2.51051C17.2942 2.60101 17.9359 3.34081 17.9359 4.26766V11.3288C17.7855 11.3815 17.5568 11.4478 17.2206 11.5168C16.2472 11.7167 14.4293 11.9281 11.1198 11.9281C7.81034 11.9281 5.99245 11.7167 5.01905 11.5168C4.68284 11.4478 4.45416 11.3815 4.30376 11.3288V4.26774C4.30376 3.34087 4.94556 2.60104 5.8079 2.51055ZM19.2359 10.3691V8.64784C19.4572 8.6474 19.579 8.64367 19.68 8.61182C19.9228 8.53531 20.1129 8.34514 20.1895 8.10237C20.2255 7.98791 20.2255 7.84683 20.2255 7.56467V5.06782C20.2255 4.78566 20.2255 4.64458 20.1895 4.53012C20.1129 4.28735 19.9228 4.09719 19.68 4.02067C19.5771 3.98823 19.4527 3.98496 19.2235 3.98463C19.0992 2.57266 18.052 1.37341 16.5676 1.21762C15.2897 1.0835 13.4591 0.955907 11.1198 0.955933C8.78059 0.955957 6.95012 1.08355 5.67222 1.21765C4.18778 1.37342 3.14057 2.57263 3.01619 3.9846C2.78704 3.98493 2.6626 3.9882 2.55969 4.02063C2.31692 4.09715 2.12675 4.28731 2.05024 4.53009C2.01416 4.64455 2.01416 4.78563 2.01416 5.06779V7.56464C2.01416 7.8468 2.01416 7.98787 2.05024 8.10233C2.12675 8.34511 2.31692 8.53527 2.55969 8.61179C2.66073 8.64363 2.78251 8.64737 3.00376 8.64781V11.729C3.00376 11.7426 3.00419 11.7561 3.00503 11.7696V16.3621C2.9825 16.4897 2.9825 16.6487 2.9825 16.9462V19.1677C2.9825 19.4873 2.9825 19.6471 3.01045 19.7797C3.11668 20.2837 3.5104 20.6774 4.01435 20.7836C4.14696 20.8116 4.30677 20.8116 4.62638 20.8116C4.94599 20.8116 5.10579 20.8116 5.23841 20.7836C5.74236 20.6774 6.13608 20.2837 6.24231 19.7797C6.27026 19.6471 6.27026 19.4873 6.27026 19.1677V17.8551H15.9695V18.707C15.9695 19.0266 15.9695 19.1864 15.9974 19.319C16.1037 19.823 16.4974 20.2167 17.0013 20.3229C17.134 20.3509 17.2938 20.3509 17.6134 20.3509C17.933 20.3509 18.0928 20.3509 18.2254 20.3229C18.7293 20.2167 19.1231 19.823 19.2293 19.319C19.2573 19.1864 19.2573 19.0266 19.2573 18.707V16.4855C19.2573 16.1996 19.2573 16.0416 19.2373 15.9166V10.368L19.2359 10.3691ZM7.25875 14.8415C7.25875 15.368 6.83194 15.7948 6.30543 15.7948C5.77892 15.7948 5.3521 15.368 5.3521 14.8415C5.3521 14.315 5.77892 13.8881 6.30543 13.8881C6.83194 13.8881 7.25875 14.315 7.25875 14.8415ZM15.937 15.795C16.4636 15.795 16.8904 15.3681 16.8904 14.8416C16.8904 14.3151 16.4636 13.8883 15.937 13.8883C15.4105 13.8883 14.9837 14.3151 14.9837 14.8416C14.9837 15.3681 15.4105 15.795 15.937 15.795ZM8.92075 14.8415C8.92075 14.4651 9.22589 14.16 9.6023 14.16H12.6434C13.0198 14.16 13.3249 14.4651 13.3249 14.8415C13.3249 15.2179 13.0198 15.5231 12.6434 15.5231H9.6023C9.22589 15.5231 8.92075 15.2179 8.92075 14.8415Z" fill="black"/>
</g>
<defs>
<clipPath id="clip0_120_4642">
<rect width="20.8" height="20.8" fill="white" transform="translate(0.719727 0.600098)"/>
</clipPath>
</defs>
</svg>
