<svg width="21" height="22" viewBox="0 0 21 22" fill="none" xmlns="http://www.w3.org/2000/svg">
<g clip-path="url(#clip0_120_4643)">
<path d="M18.1543 9.046V9.696C18.3602 9.696 18.5539 9.59847 18.6765 9.43309C18.7991 9.26772 18.8361 9.05404 18.7762 8.85706L18.1543 9.046ZM2.99609 9.046L2.37416 8.85706C2.31432 9.05404 2.35133 9.26772 2.47393 9.43309C2.59653 9.59847 2.79023 9.696 2.99609 9.696V9.046ZM17.2748 6.15108L16.6529 6.34002L17.2748 6.15108ZM16.6529 6.34002L17.5324 9.23494L18.7762 8.85706L17.8968 5.96215L16.6529 6.34002ZM18.1543 8.396H2.99609V9.696H18.1543V8.396ZM3.61803 9.23494L4.49744 6.34018L3.25357 5.9623L2.37416 8.85706L3.61803 9.23494ZM6.28242 4.69421C7.20698 4.58634 8.58491 4.49206 10.5752 4.49204L10.5752 3.19204C8.54523 3.19206 7.1159 3.28814 6.13176 3.40297L6.28242 4.69421ZM10.5752 4.49204C12.5656 4.49202 13.9436 4.5863 14.8681 4.69419L15.0188 3.40295C14.0347 3.2881 12.6053 3.19202 10.5752 3.19204L10.5752 4.49204ZM17.8968 5.96215C17.5009 4.65893 16.4843 3.57397 15.0188 3.40295L14.8681 4.69419C15.7121 4.79267 16.373 5.41851 16.6529 6.34002L17.8968 5.96215ZM4.49744 6.34018C4.77741 5.41859 5.43838 4.7927 6.28242 4.69421L6.13176 3.40297C4.66616 3.57398 3.64951 4.65898 3.25357 5.9623L4.49744 6.34018Z" fill="black"/>
<path fill-rule="evenodd" clip-rule="evenodd" d="M3.20977 8.34265C3.03737 8.34265 2.87203 8.41114 2.75013 8.53305L1.54401 9.73925C0.690781 10.5925 0.21145 11.7498 0.21145 12.9565V14.6038C0.206055 14.7074 0.206055 14.8387 0.206055 15.0234V17.2449C0.206055 17.5645 0.206055 17.7243 0.23401 17.857C0.340242 18.3609 0.733961 18.7546 1.23791 18.8609C1.37052 18.8888 1.53033 18.8888 1.84994 18.8888C2.16955 18.8888 2.32935 18.8888 2.46197 18.8609C2.96592 18.7546 3.35964 18.3609 3.46587 17.857C3.49382 17.7243 3.49382 17.5645 3.49382 17.2449V16.8747H17.6539V17.2449C17.6539 17.5645 17.6539 17.7243 17.6818 17.857C17.788 18.3609 18.1818 18.7546 18.6857 18.8609C18.8183 18.8888 18.9781 18.8888 19.2977 18.8888C19.6173 18.8888 19.7772 18.8888 19.9098 18.8609C20.4137 18.7546 20.8074 18.3609 20.9137 17.857C20.9416 17.7243 20.9416 17.5645 20.9416 17.2449V15.0234C20.9416 14.8818 20.9416 14.7716 20.9392 14.6812V12.9565C20.9392 11.7498 20.4599 10.5925 19.6066 9.73925L18.4005 8.53305C18.2786 8.41114 18.1133 8.34265 17.9409 8.34265H3.20977ZM5.90745 12.9546C5.90745 13.7196 5.28726 14.3398 4.52223 14.3398C3.75719 14.3398 3.13701 13.7196 3.13701 12.9546C3.13701 12.1895 3.75719 11.5693 4.52223 11.5693C5.28726 11.5693 5.90745 12.1895 5.90745 12.9546ZM16.6282 14.3398C17.3932 14.3398 18.0134 13.7196 18.0134 12.9546C18.0134 12.1895 17.3932 11.5694 16.6282 11.5694C15.8632 11.5694 15.243 12.1895 15.243 12.9546C15.243 13.7196 15.8632 14.3398 16.6282 14.3398ZM7.37566 12.9546C7.37566 12.4077 7.81904 11.9643 8.36597 11.9643H12.7847C13.3317 11.9643 13.775 12.4077 13.775 12.9546C13.775 13.5016 13.3317 13.945 12.7847 13.945H8.36597C7.81904 13.945 7.37566 13.5016 7.37566 12.9546Z" fill="black"/>
</g>
<defs>
<clipPath id="clip0_120_4643">
<rect width="20.8" height="20.8" fill="white" transform="translate(0.173828 0.600098)"/>
</clipPath>
</defs>
</svg>
