<svg width="49" height="48" viewBox="0 0 49 48" fill="none" xmlns="http://www.w3.org/2000/svg">
<g clip-path="url(#clip0_424_14383)">
<path d="M8.89941 17.836H39.1867V28.3747C39.1867 29.5767 39.1867 30.1777 38.9792 30.8753C38.8284 31.3822 38.4218 32.1597 38.0915 32.5727C37.6369 33.1412 37.2968 33.3774 36.6166 33.8498C29.2971 38.9338 18.789 38.9338 11.4695 33.8498C10.7893 33.3774 10.4492 33.1412 9.99463 32.5727C9.66431 32.1597 9.25771 31.3822 9.10693 30.8753C8.89941 30.1777 8.89941 29.5767 8.89941 28.3747V17.836Z" fill="#FF983E" stroke="black" stroke-width="2" stroke-linejoin="round"/>
<path d="M9.37527 21.4596C6.00271 20.0686 4.31643 19.373 3.81269 18.3858C3.37563 17.5293 3.37563 16.5152 3.81269 15.6587C4.31643 14.6715 6.00271 13.976 9.37526 12.5849L17.9422 9.05134C20.194 8.12252 21.3199 7.65811 22.4846 7.47436C23.5172 7.31144 24.5689 7.31144 25.6015 7.47436C26.7661 7.6581 27.8921 8.12251 30.1439 9.05133L38.7108 12.5849C42.0833 13.9759 43.7696 14.6715 44.2734 15.6587C44.7104 16.5152 44.7104 17.5293 44.2734 18.3858C43.7696 19.373 42.0833 20.0685 38.7108 21.4596L30.1439 24.9932C27.892 25.922 26.7661 26.3864 25.6015 26.5701C24.5689 26.7331 23.5171 26.7331 22.4846 26.5701C21.3199 26.3864 20.194 25.922 17.9421 24.9932L9.37527 21.4596Z" fill="#FF983E" stroke="black" stroke-width="2"/>
<ellipse cx="24.043" cy="17.0223" rx="3.45825" ry="1.77234" fill="black"/>
<path d="M23.9264 17.0223L12.0364 22.2015V39.8417" stroke="black" stroke-width="2" stroke-linecap="round"/>
</g>
<defs>
<clipPath id="clip0_424_14383">
<rect width="48" height="48" fill="white" transform="translate(0.0429688)"/>
</clipPath>
</defs>
</svg>
