<svg width="17" height="16" viewBox="0 0 17 16" fill="none" xmlns="http://www.w3.org/2000/svg">
<g clip-path="url(#clip0_100_7586)">
<path d="M9.21387 2.13623H8.14414C5.90393 2.13623 4.78383 2.13623 3.92818 2.5722C3.17553 2.9557 2.56361 3.56762 2.18011 4.32027C1.74414 5.17592 1.74414 6.29602 1.74414 8.53623V8.67568C1.74414 10.9159 1.74414 12.036 2.18011 12.8916C2.56361 13.6443 3.17553 14.2562 3.92818 14.6397C4.78383 15.0757 5.90393 15.0757 8.14414 15.0757H8.28359C10.5238 15.0757 11.6439 15.0757 12.4996 14.6397C13.2522 14.2562 13.8641 13.6443 14.2476 12.8916C14.6836 12.036 14.6836 10.9159 14.6836 8.67568V7.60596" stroke="black" stroke-width="1.4" stroke-linecap="round"/>
<path fill-rule="evenodd" clip-rule="evenodd" d="M16.0455 0.774326C16.4731 1.20197 16.4731 1.89533 16.0455 2.32298L8.90487 9.46361C8.8442 9.52428 8.77632 9.57728 8.70275 9.62142L6.65688 10.8489C6.21054 11.1167 5.70308 10.6093 5.97089 10.1629L7.19841 8.11708C7.24255 8.04351 7.29555 7.97563 7.35622 7.91496L14.4968 0.774326C14.9245 0.346678 15.6179 0.346677 16.0455 0.774326Z" fill="black"/>
</g>
<defs>
<clipPath id="clip0_100_7586">
<rect width="16" height="16" fill="white" transform="translate(0.819824)"/>
</clipPath>
</defs>
</svg>
