<svg width="17" height="16" viewBox="0 0 17 16" fill="none" xmlns="http://www.w3.org/2000/svg">
<g clip-path="url(#clip0_65_1703)">
<path fill-rule="evenodd" clip-rule="evenodd" d="M4.96296 1.94446L12.4396 1.94275C13.6765 1.94275 14.1251 2.07154 14.5773 2.31338C15.0295 2.55522 15.3844 2.91011 15.6262 3.36232C15.8681 3.81452 15.9969 4.26306 15.9969 5.49999V10.6218C15.9969 10.9987 15.9624 11.3332 15.8868 11.6414C15.8112 11.9495 15.6944 12.2313 15.53 12.5027C15.3656 12.774 15.1534 13.0349 14.8869 13.3015C14.6204 13.568 14.3594 13.7801 14.0881 13.9446C13.8167 14.109 13.535 14.2257 13.2268 14.3013C12.9187 14.3769 12.5841 14.4114 12.2072 14.4114H5.20006C3.96313 14.4114 3.51459 14.2826 3.06239 14.0408C2.61019 13.7989 2.25529 13.444 2.01345 12.9918C1.78774 12.5698 1.6605 12.1509 1.64453 11.0913L1.64282 5.49999C1.64282 4.26306 1.77161 3.81452 2.01345 3.36232C2.25529 2.91011 2.61019 2.55522 3.06239 2.31338L3.24495 2.22271C3.6172 2.05358 4.05469 1.95814 4.96296 1.94446Z" stroke="black" stroke-width="1.4"/>
<path d="M12.2302 14.4114V13.4907C12.2302 12.5011 12.3333 12.1423 12.5267 11.7806C12.7202 11.4188 13.0041 11.1349 13.3659 10.9414C13.7276 10.7479 14.0865 10.6449 15.076 10.6449H15.9968" stroke="black" stroke-width="1.5"/>
<path d="M1.64282 5.3396H15.8591" stroke="black" stroke-width="1.5"/>
<path d="M6.13428 1.09021V2.7953" stroke="black" stroke-width="1.5" stroke-linecap="round"/>
<path d="M11.3674 1.09021V2.7953" stroke="black" stroke-width="1.5" stroke-linecap="round"/>
<path fill-rule="evenodd" clip-rule="evenodd" d="M8.81953 11.1009L8.03234 11.6547C7.8025 11.8164 7.4851 11.7612 7.3234 11.5313C7.23281 11.4026 7.20692 11.2391 7.25329 11.0887L7.53675 10.1689L6.76678 9.59138C6.54197 9.42275 6.49642 9.10381 6.66504 8.879C6.7595 8.75306 6.90694 8.67793 7.06436 8.67554L8.02672 8.66089L8.33804 7.75015C8.42894 7.48424 8.71819 7.34236 8.98411 7.43325C9.13308 7.48418 9.25009 7.60118 9.30101 7.75015L9.61233 8.66089L10.5747 8.67554C10.8557 8.67982 11.08 8.91107 11.0757 9.19206C11.0733 9.34947 10.9982 9.49691 10.8723 9.59138L10.1023 10.1689L10.3858 11.0887C10.4685 11.3572 10.3179 11.642 10.0494 11.7248C9.8989 11.7712 9.73546 11.7453 9.60671 11.6547L8.81953 11.1009Z" fill="black"/>
</g>
<defs>
<clipPath id="clip0_65_1703">
<rect width="16" height="16" fill="white" transform="translate(0.819824)"/>
</clipPath>
</defs>
</svg>
