<svg width="49" height="48" viewBox="0 0 49 48" fill="none" xmlns="http://www.w3.org/2000/svg">
<rect x="6.56274" y="4.46338" width="36.5139" height="39.0735" rx="5.92493" fill="#FF983E"/>
<path d="M20.2555 42.5369H15.6912V42.5369C12.704 42.5369 11.2104 42.5369 10.0466 42.0107C8.73394 41.4172 7.68252 40.3657 7.08899 39.0531C6.56274 37.8893 6.56274 36.3957 6.56274 33.4084V13.9433C6.56274 10.625 6.56274 8.96586 7.20852 7.69845C7.77657 6.5836 8.68297 5.6772 9.79781 5.10916C11.0652 4.46338 12.7244 4.46338 16.0426 4.46338H33.5968C36.915 4.46338 38.5742 4.46338 39.8416 5.10916C40.9564 5.6772 41.8628 6.5836 42.4309 7.69845C43.0767 8.96586 43.0767 10.625 43.0767 13.9433V33.4084C43.0767 36.3957 43.0767 37.8893 42.5504 39.0531C41.9569 40.3657 40.9055 41.4172 39.5928 42.0107C38.429 42.5369 36.9354 42.5369 33.9482 42.5369V42.5369H29.3839" stroke="black" stroke-width="2" stroke-linecap="round"/>
<rect x="29.3179" y="9.06055" width="9.75908" height="16.8659" rx="1.56" fill="white"/>
<rect x="29.4456" y="13.6979" width="9.2989" height="12.1313" rx="1.2" fill="white"/>
<rect x="29.3179" y="9.06055" width="9.75908" height="16.8659" rx="1.56" stroke="black" stroke-width="1.2"/>
<path d="M39.0768 13.1903L32.3394 16.028C31.7934 16.258 31.1613 16.0551 30.8511 15.5503L29.4054 13.197L39.0768 13.1903Z" fill="black" style="mix-blend-mode:overlay"/>
<path d="M39.0768 13.1903L32.3394 16.028C31.7934 16.258 31.1613 16.0551 30.8511 15.5503L29.4054 13.197L39.0768 13.1903Z" stroke="black" stroke-width="1.2" stroke-linejoin="round"/>
<rect x="10.8574" y="9.06055" width="9.75908" height="16.8659" rx="1.56" fill="white"/>
<rect x="10.9854" y="13.6979" width="9.2989" height="12.1313" rx="1.2" fill="white"/>
<rect x="10.8574" y="9.06055" width="9.75908" height="16.8659" rx="1.56" stroke="black" stroke-width="1.2"/>
<path d="M20.6166 13.1903L13.8792 16.028C13.3332 16.258 12.7011 16.0551 12.3909 15.5503L10.9452 13.197L20.6166 13.1903Z" fill="black" style="mix-blend-mode:overlay"/>
<path d="M20.6166 13.1903L13.8792 16.028C13.3332 16.258 12.7011 16.0551 12.3909 15.5503L10.9452 13.197L20.6166 13.1903Z" stroke="black" stroke-width="1.2" stroke-linejoin="round"/>
</svg>
