<svg width="36" height="35" viewBox="0 0 36 35" fill="none" xmlns="http://www.w3.org/2000/svg">
<g clip-path="url(#clip0_329_18224)">
<ellipse cx="18.0003" cy="11.3354" rx="5.69611" ry="5.96554" fill="#FF983E" stroke="black" stroke-width="1.44" stroke-linecap="round" stroke-linejoin="round"/>
<path d="M30.2508 28.2403C27.5278 23.9377 23.0555 21.1311 18.0001 21.1311C12.9446 21.1311 8.47228 23.9377 5.74927 28.2404C5.74927 28.2404 7.41951 33.2855 18 33.2855C28.5806 33.2855 30.2508 28.2403 30.2508 28.2403Z" fill="#FF983E" stroke="black" stroke-width="1.44" stroke-linecap="round" stroke-linejoin="round"/>
<path d="M23 10.31C23 7.11002 19.6667 5.64335 18 5.31002C19.1667 4.64335 22.4825 2.91129 25.893 6.65284C27.6891 8.62329 27.4948 10.7107 26.7137 12.44C26.0144 13.9884 26.785 16.1164 28.4775 16.2643L29 16.31C27.6667 17.1434 25.297 18.7053 23.2772 17.8444C22.0883 17.3376 21.8193 16.4186 21.799 15.7482C21.7826 15.2009 22.038 14.6954 22.2457 14.1887C22.5698 13.3978 23 12.0251 23 10.31Z" fill="white" stroke="black" stroke-width="1.44" stroke-linejoin="round"/>
<path d="M13 10.31C13 7.11002 16.3333 5.64335 18 5.31002C16.8333 4.64335 13.5175 2.91129 10.107 6.65284C8.31094 8.62329 8.50518 10.7107 9.28627 12.44C9.98559 13.9884 9.21501 16.1164 7.52253 16.2643L7 16.31C8.33333 17.1434 10.703 18.7053 12.7228 17.8444C13.9117 17.3376 14.1807 16.4186 14.201 15.7482C14.2174 15.2009 13.962 14.6954 13.7543 14.1887C13.4302 13.3978 13 12.0251 13 10.31Z" fill="white" stroke="black" stroke-width="1.44" stroke-linejoin="round"/>
</g>
<defs>
<clipPath id="clip0_329_18224">
<rect width="34.56" height="34.56" fill="white" transform="translate(0.719971 0.280273)"/>
</clipPath>
</defs>
</svg>
