<svg width="48" height="48" viewBox="0 0 48 48" fill="none" xmlns="http://www.w3.org/2000/svg">
<path d="M1.28174 23.9998C1.28174 22.0793 2.83867 20.5223 4.75925 20.5223H43.2403C45.1609 20.5223 46.7178 22.0793 46.7178 23.9998C46.7178 25.9204 45.1609 27.4774 43.2403 27.4774H4.75925C2.83868 27.4774 1.28174 25.9204 1.28174 23.9998Z" fill="white" stroke="black" stroke-width="2"/>
<path d="M11.4919 15.8857L11.4919 32.1141L7.73692 32.1141C6.61682 32.1141 6.05676 32.1141 5.62894 31.8961C5.25262 31.7044 4.94666 31.3984 4.75491 31.0221C4.53692 30.5943 4.53692 30.0342 4.53692 28.9141L4.53692 19.0857C4.53692 17.9656 4.53692 17.4056 4.75491 16.9778C4.94666 16.6014 5.25262 16.2955 5.62894 16.1037C6.05677 15.8857 6.61682 15.8857 7.73692 15.8857L11.4919 15.8857Z" fill="#FF983E" stroke="black" stroke-width="2"/>
<path d="M12.9287 10.9735C14.0488 10.9735 14.6088 10.9735 15.0366 11.1915C15.413 11.3832 15.7189 11.6892 15.9107 12.0655C16.1287 12.4934 16.1287 13.0534 16.1287 14.1735L16.1287 33.7735C16.1287 34.8936 16.1287 35.4537 15.9107 35.8815C15.7189 36.2578 15.413 36.5638 15.0366 36.7555C14.6088 36.9735 14.0488 36.9735 12.9287 36.9735L12.3736 36.9735C11.2535 36.9735 10.6935 36.9735 10.2657 36.7555C9.88933 36.5638 9.58337 36.2578 9.39163 35.8815C9.17364 35.4537 9.17364 34.8936 9.17364 33.7735L9.17364 14.1735C9.17364 13.0534 9.17364 12.4934 9.39163 12.0655C9.58337 11.6892 9.88934 11.3832 10.2657 11.1915C10.6935 10.9735 11.2535 10.9735 12.3736 10.9735L12.9287 10.9735Z" fill="#FF983E" stroke="black" stroke-width="2"/>
<path d="M36.5078 15.8857L36.5078 32.1141L40.2628 32.1141C41.3829 32.1141 41.943 32.1141 42.3708 31.8961C42.7471 31.7044 43.0531 31.3984 43.2448 31.0221C43.4628 30.5943 43.4628 30.0342 43.4628 28.9141L43.4628 19.0857C43.4628 17.9656 43.4628 17.4056 43.2448 16.9778C43.0531 16.6014 42.7471 16.2955 42.3708 16.1037C41.943 15.8857 41.3829 15.8857 40.2628 15.8857L36.5078 15.8857Z" fill="#FF983E" stroke="black" stroke-width="2"/>
<path d="M35.6262 10.9735C36.7463 10.9735 37.3063 10.9735 37.7342 11.1915C38.1105 11.3832 38.4164 11.6892 38.6082 12.0655C38.8262 12.4934 38.8262 13.0534 38.8262 14.1735L38.8262 33.7735C38.8262 34.8936 38.8262 35.4537 38.6082 35.8815C38.4164 36.2578 38.1105 36.5638 37.7342 36.7555C37.3063 36.9735 36.7463 36.9735 35.6262 36.9735L35.0712 36.9735C33.951 36.9735 33.391 36.9735 32.9632 36.7555C32.5868 36.5638 32.2809 36.2578 32.0891 35.8815C31.8711 35.4537 31.8711 34.8936 31.8711 33.7735L31.8712 14.1735C31.8712 13.0534 31.8712 12.4934 32.0891 12.0655C32.2809 11.6892 32.5868 11.3832 32.9632 11.1915C33.391 10.9735 33.951 10.9735 35.0712 10.9735L35.6262 10.9735Z" fill="#FF983E" stroke="black" stroke-width="2"/>
<path d="M19.3423 20.4696V27.4775" stroke="black" stroke-width="2"/>
<path d="M28.6577 20.4696V27.4775" stroke="black" stroke-width="2"/>
</svg>
