<svg width="17" height="16" viewBox="0 0 17 16" fill="none" xmlns="http://www.w3.org/2000/svg">
<g clip-path="url(#clip0_161_6259)">
<path fill-rule="evenodd" clip-rule="evenodd" d="M2.99021 10.5829C2.28425 10.5829 2.02825 10.5094 1.77016 10.3714C1.51207 10.2333 1.30952 10.0308 1.17149 9.77268C1.04408 9.53445 0.971651 9.29799 0.961262 8.70777L0.959961 7.44745C0.959961 6.74149 1.03347 6.48549 1.17149 6.2274C1.30952 5.96932 1.51207 5.76677 1.77016 5.62874L1.89078 5.56965C2.11767 5.46983 2.39286 5.41721 2.99021 5.41721H4.54191L6.92923 3.6213L7.32959 3.33528C7.72428 3.0592 7.96409 2.92261 8.17214 2.92971C8.40757 2.93774 8.62723 3.05019 8.77135 3.23649C8.91334 3.41993 8.93363 3.73969 8.93652 4.33053V11.6696L8.93259 11.9658C8.92223 12.3722 8.88752 12.6135 8.77135 12.7636C8.62723 12.9499 8.40757 13.0624 8.17214 13.0704C7.90168 13.0796 7.57753 12.846 6.92924 12.3788L4.54191 10.5829H2.99021Z" stroke="black" stroke-width="1.4" stroke-linejoin="round"/>
<path d="M13.2295 12.9493C14.4961 11.6827 15.2795 9.93284 15.2795 8.00004C15.2795 6.06723 14.4961 4.31741 13.2295 3.05078" stroke="black" stroke-width="1.5" stroke-linecap="round"/>
<path d="M11.4556 10.5614C12.1111 9.90591 12.5165 9.00032 12.5165 8.00002C12.5165 6.99972 12.1111 6.09412 11.4556 5.4386" stroke="black" stroke-width="1.5" stroke-linecap="round"/>
</g>
<defs>
<clipPath id="clip0_161_6259">
<rect width="16" height="16" fill="white" transform="translate(0.119629)"/>
</clipPath>
</defs>
</svg>
