<svg width="17" height="16" viewBox="0 0 17 16" fill="none" xmlns="http://www.w3.org/2000/svg">
<path fill-rule="evenodd" clip-rule="evenodd" d="M7.1616 10.5829C6.45563 10.5829 6.19964 10.5094 5.94155 10.3714C5.68346 10.2333 5.48091 10.0308 5.34288 9.77268C5.21547 9.53445 5.14304 9.29799 5.13265 8.70777L5.13135 7.44745C5.13135 6.74149 5.20485 6.48549 5.34288 6.2274C5.48091 5.96932 5.68346 5.76677 5.94155 5.62874L6.06216 5.56965C6.28905 5.46983 6.56424 5.41721 7.1616 5.41721H8.71329L11.1006 3.6213L11.501 3.33528C11.8957 3.0592 12.1355 2.92261 12.3435 2.92971C12.579 2.93774 12.7986 3.05019 12.9427 3.23649C13.0847 3.41993 13.105 3.73969 13.1079 4.33053V11.6696L13.104 11.9658C13.0936 12.3722 13.0589 12.6135 12.9427 12.7636C12.7986 12.9499 12.579 13.0624 12.3435 13.0704C12.0731 13.0796 11.7489 12.846 11.1006 12.3788L8.71329 10.5829H7.1616Z" stroke="black" stroke-width="1.4" stroke-linejoin="round"/>
</svg>
