<svg width="48" height="48" viewBox="0 0 48 48" fill="none" xmlns="http://www.w3.org/2000/svg">
<rect x="7.25049" y="5.84204" width="33.1385" height="40" rx="5.92493" fill="#FF983E" stroke="black" stroke-width="2"/>
<path d="M22.6199 16.5895L33.3799 16.5892" stroke="black" stroke-width="6.4" stroke-linecap="round" stroke-linejoin="round"/>
<path d="M22.6199 16.5895L33.3799 16.5892" stroke="white" stroke-width="2.4" stroke-linecap="round" stroke-linejoin="round"/>
<path d="M22.6199 27.5897L33.3799 27.5895" stroke="black" stroke-width="6.4" stroke-linecap="round" stroke-linejoin="round"/>
<path d="M22.6199 27.5897L33.3799 27.5895" stroke="white" stroke-width="2.4" stroke-linecap="round" stroke-linejoin="round"/>
<path d="M22.6199 38.59L33.3799 38.5897" stroke="black" stroke-width="6.4" stroke-linecap="round" stroke-linejoin="round"/>
<path d="M22.6199 38.59L33.3799 38.5897" stroke="white" stroke-width="2.4" stroke-linecap="round" stroke-linejoin="round"/>
<path d="M14.6199 16.5895L14.62 16.5892" stroke="black" stroke-width="6.4" stroke-linecap="round" stroke-linejoin="round"/>
<path d="M14.6199 16.5895L14.62 16.5892" stroke="white" stroke-width="2.4" stroke-linecap="round" stroke-linejoin="round"/>
<path d="M14.6199 27.5897L14.62 27.5895" stroke="black" stroke-width="6.4" stroke-linecap="round" stroke-linejoin="round"/>
<path d="M14.6199 27.5897L14.62 27.5895" stroke="white" stroke-width="2.4" stroke-linecap="round" stroke-linejoin="round"/>
<path d="M14.6199 38.59L14.62 38.5897" stroke="black" stroke-width="6.4" stroke-linecap="round" stroke-linejoin="round"/>
<path d="M14.6199 38.59L14.62 38.5897" stroke="white" stroke-width="2.4" stroke-linecap="round" stroke-linejoin="round"/>
<rect x="15.7839" y="3.15796" width="16.0719" height="5.36829" rx="2.68414" fill="white" stroke="black" stroke-width="2"/>
</svg>
