<svg width="13" height="27" viewBox="0 0 13 27" fill="none" xmlns="http://www.w3.org/2000/svg">
<path d="M1.24951 6.30578C1.24951 4.88665 1.24951 4.17708 1.44219 3.60459C1.81011 2.51146 2.6682 1.65337 3.76133 1.28546C4.33382 1.09277 5.04339 1.09277 6.46253 1.09277C7.88166 1.09277 8.59123 1.09277 9.16372 1.28546C10.2569 1.65337 11.1149 2.51146 11.4829 3.60459C11.6755 4.17708 11.6755 4.88665 11.6755 6.30579V21.756C11.6755 23.1331 11.6755 23.8216 11.4075 24.3476C11.1718 24.8103 10.7956 25.1865 10.333 25.4222C9.80697 25.6902 9.11841 25.6902 7.7413 25.6902H5.18376C3.80664 25.6902 3.11809 25.6902 2.5921 25.4222C2.12942 25.1865 1.75326 24.8103 1.51752 24.3476C1.24951 23.8216 1.24951 23.1331 1.24951 21.756V6.30578Z" fill="#FF983E" stroke="black" stroke-width="2"/>
</svg>
