<svg width="48" height="48" viewBox="0 0 48 48" fill="none" xmlns="http://www.w3.org/2000/svg">
<ellipse cx="12.6499" cy="14.624" rx="6.12326" ry="6.4129" fill="#FF983E" stroke="black" stroke-width="2" stroke-linecap="round" stroke-linejoin="round"/>
<path d="M23.9999 31.6346C21.477 27.6482 17.3334 25.0479 12.6495 25.0479C7.96555 25.0479 3.82196 27.6482 1.29907 31.6346C1.29907 31.6346 2.84656 35.8679 12.6495 35.8679C22.4524 35.8679 23.9999 31.6346 23.9999 31.6346Z" fill="#FF983E" stroke="black" stroke-width="2" stroke-linecap="round" stroke-linejoin="round"/>
<ellipse cx="31.7089" cy="15.5991" rx="7.91126" ry="8.28548" fill="#FF983E" stroke="black" stroke-width="2" stroke-linecap="round" stroke-linejoin="round"/>
<path d="M46.3732 37.5768C43.1136 32.4264 37.7601 29.0668 31.7085 29.0668C25.6568 29.0668 20.3033 32.4264 17.0437 37.5769C17.0437 37.5769 19.0431 43.7542 31.7084 43.7542C44.3738 43.7542 46.3732 37.5768 46.3732 37.5768Z" fill="#FF983E" stroke="black" stroke-width="2" stroke-linecap="round" stroke-linejoin="round"/>
</svg>
