<svg width="49" height="48" viewBox="0 0 49 48" fill="none" xmlns="http://www.w3.org/2000/svg">
<g clip-path="url(#clip0_227_8066)">
<path fill-rule="evenodd" clip-rule="evenodd" d="M20.964 9.99011C18.8351 9.99011 17.1094 11.7159 17.1094 13.8447V42.5099C17.1094 44.9952 15.0947 47.0099 12.6094 47.0099C10.1241 47.0099 8.10938 44.9952 8.10938 42.5099V13.8447C8.10938 6.74532 13.8646 0.990112 20.964 0.990112C28.0634 0.990112 33.8186 6.74532 33.8186 13.8447V16.6954C33.8186 19.1807 31.8039 21.1954 29.3186 21.1954C26.8333 21.1954 24.8186 19.1807 24.8186 16.6954V13.8447C24.8186 11.7159 23.0928 9.99011 20.964 9.99011Z" fill="#FF983E" stroke="black" stroke-width="2"/>
<path d="M22.8735 17.4953C22.5171 16.1651 22.3388 15.5 22.4616 14.9225C22.5695 14.4146 22.8355 13.9539 23.2214 13.6065C23.6601 13.2114 24.3252 13.0332 25.6554 12.6768L31.9442 10.9917C33.2744 10.6353 33.9395 10.4571 34.517 10.5798C35.0249 10.6878 35.4856 10.9538 35.833 11.3397C36.228 11.7784 36.4063 12.4435 36.7627 13.7737L36.8915 14.2546C36.9985 14.6536 37.0519 14.8531 37.0151 15.0264C36.9827 15.1787 36.9029 15.317 36.7872 15.4212C36.6555 15.5397 36.456 15.5932 36.057 15.7001L24.4479 18.8107C24.0488 18.9177 23.8493 18.9711 23.6761 18.9343C23.5237 18.9019 23.3855 18.8221 23.2812 18.7063C23.1627 18.5747 23.1093 18.3752 23.0023 17.9762L22.8735 17.4953Z" fill="#FF983E" stroke="black" stroke-width="2"/>
<path d="M40.5587 17.9697C40.3423 17.1623 40.2341 16.7586 40.0488 16.4555C39.6135 15.7437 38.847 15.3011 38.013 15.2801C37.6578 15.2711 37.2541 15.3793 36.4466 15.5957L24.0583 18.9151C23.2509 19.1315 22.8472 19.2396 22.544 19.425C21.8322 19.8602 21.3897 20.6267 21.3686 21.4608C21.3597 21.816 21.4679 22.2197 21.6842 23.0271C21.7491 23.2694 21.7816 23.3905 21.8372 23.4814C21.9678 23.695 22.1977 23.8277 22.4479 23.834C22.5545 23.8367 22.6756 23.8043 22.9178 23.7394L39.8464 19.2034C40.0887 19.1384 40.2098 19.106 40.3007 19.0504C40.5143 18.9198 40.647 18.6899 40.6533 18.4396C40.656 18.3331 40.6236 18.212 40.5587 17.9697Z" fill="#FF983E" stroke="black" stroke-width="2"/>
<path fill-rule="evenodd" clip-rule="evenodd" d="M25.1581 27.054C25.9583 26.8396 26.7808 27.3145 26.9952 28.1147L27.7565 30.9556C27.9709 31.7558 27.496 32.5783 26.6958 32.7928C25.8956 33.0072 25.0731 32.5323 24.8587 31.7321L24.0975 28.8911C23.883 28.091 24.3579 27.2684 25.1581 27.054Z" fill="#0FA9A7" stroke="black" stroke-width="1.5" stroke-linecap="round"/>
<path fill-rule="evenodd" clip-rule="evenodd" d="M31.1764 32.2531C31.9766 32.0387 32.7991 32.5136 33.0135 33.3138L33.7748 36.1547C33.9892 36.9549 33.5143 37.7774 32.7141 37.9919C31.9139 38.2063 31.0914 37.7314 30.877 36.9312L30.1158 34.0902C29.9014 33.29 30.3762 32.4675 31.1764 32.2531Z" fill="#0FA9A7" stroke="black" stroke-width="1.5" stroke-linecap="round"/>
<path fill-rule="evenodd" clip-rule="evenodd" d="M33.5751 23.8137C34.3753 23.5993 35.1978 24.0741 35.4122 24.8743L36.1735 27.7153C36.3879 28.5155 35.913 29.338 35.1128 29.5524C34.3126 29.7668 33.4901 29.2919 33.2757 28.4917L32.5144 25.6508C32.3 24.8506 32.7749 24.0281 33.5751 23.8137Z" fill="#0FA9A7" stroke="black" stroke-width="1.5" stroke-linecap="round"/>
<path fill-rule="evenodd" clip-rule="evenodd" d="M38.8986 32.0899C39.6988 31.8755 40.5213 32.3504 40.7357 33.1506L41.4969 35.9915C41.7114 36.7917 41.2365 37.6142 40.4363 37.8286C39.6361 38.0431 38.8136 37.5682 38.5992 36.768L37.8379 33.927C37.6235 33.1268 38.0984 32.3043 38.8986 32.0899Z" fill="#0FA9A7" stroke="black" stroke-width="1.5" stroke-linecap="round"/>
<path fill-rule="evenodd" clip-rule="evenodd" d="M39.7821 23.7966C40.5823 23.5822 41.4048 24.057 41.6193 24.8572L42.3805 27.6982C42.5949 28.4984 42.12 29.3209 41.3198 29.5353C40.5196 29.7497 39.6971 29.2748 39.4827 28.4746L38.7215 25.6337C38.5071 24.8335 38.9819 24.011 39.7821 23.7966Z" fill="#0FA9A7" stroke="black" stroke-width="1.5" stroke-linecap="round"/>
<path fill-rule="evenodd" clip-rule="evenodd" d="M29.5934 40.734C30.3936 40.5196 31.2161 40.9944 31.4305 41.7946L32.1918 44.6356C32.4062 45.4358 31.9313 46.2583 31.1311 46.4727C30.3309 46.6871 29.5084 46.2122 29.294 45.412L28.5328 42.5711C28.3183 41.7709 28.7932 40.9484 29.5934 40.734Z" fill="#0FA9A7" stroke="black" stroke-width="1.5" stroke-linecap="round"/>
</g>
<defs>
<clipPath id="clip0_227_8066">
<rect width="48" height="48" fill="white" transform="translate(0.969727)"/>
</clipPath>
</defs>
</svg>
