<svg width="17" height="16" viewBox="0 0 17 16" fill="none" xmlns="http://www.w3.org/2000/svg">
<g clip-path="url(#clip0_161_6201)">
<path fill-rule="evenodd" clip-rule="evenodd" d="M4.3597 3.68897L6.70708 1.85502C7.54562 1.1999 7.90384 1.03055 8.33013 0.919133C8.75642 0.807717 9.18233 0.807717 9.60862 0.919133C10.0349 1.03055 10.3931 1.1999 11.2317 1.85502L13.579 3.68897C14.5139 4.41931 14.81 4.71972 15.0945 5.10139C15.3791 5.48306 15.5758 5.88638 15.7014 6.3456C15.8269 6.80481 15.8814 7.22308 15.8814 8.40937V11.6202C15.8814 12.8526 15.7531 13.2995 15.5121 13.7501C15.2711 14.2007 14.9175 14.5543 14.467 14.7952C14.0164 15.0362 13.5695 15.1645 12.3371 15.1645H5.60169C4.36925 15.1645 3.92234 15.0362 3.47178 14.7952C3.02122 14.5543 2.66762 14.2007 2.42666 13.7501C2.1857 13.2995 2.05737 12.8526 2.05737 11.6202L2.05737 8.40937C2.05737 7.22308 2.11181 6.80481 2.23738 6.3456C2.36296 5.88638 2.55967 5.48306 2.84423 5.10139C3.12879 4.71972 3.42488 4.41931 4.3597 3.68897Z" stroke="black" stroke-width="1.5"/>
<path d="M6.93579 11.0703C6.93579 9.94727 7.84619 9.03687 8.96923 9.03687C10.0923 9.03687 11.0027 9.94727 11.0027 11.0703V15.1645H6.93579V11.0703Z" fill="black"/>
</g>
<defs>
<clipPath id="clip0_161_6201">
<rect width="16" height="16" fill="white" transform="translate(0.969727)"/>
</clipPath>
</defs>
</svg>
