<svg width="17" height="16" viewBox="0 0 17 16" fill="none" xmlns="http://www.w3.org/2000/svg">
<g clip-path="url(#clip0_161_6205)">
<path fill-rule="evenodd" clip-rule="evenodd" d="M4.05989 3.68897L6.40728 1.85502C7.24581 1.1999 7.60403 1.03055 8.03032 0.919133C8.45661 0.807717 8.88252 0.807717 9.30881 0.919133C9.7351 1.03055 10.0933 1.1999 10.9319 1.85502L13.2792 3.68897C14.2141 4.41931 14.5102 4.71972 14.7947 5.10139C15.0793 5.48306 15.276 5.88638 15.4016 6.3456C15.5271 6.80481 15.5816 7.22308 15.5816 8.40937V11.6202C15.5816 12.8526 15.4532 13.2995 15.2123 13.7501C14.9713 14.2007 14.6177 14.5543 14.1672 14.7952C13.7166 15.0362 13.2697 15.1645 12.0373 15.1645H5.30188C4.06945 15.1645 3.62254 15.0362 3.17198 14.7952C2.72142 14.5543 2.36781 14.2007 2.12685 13.7501C1.88589 13.2995 1.75757 12.8526 1.75757 11.6202L1.75757 8.40937C1.75757 7.22308 1.812 6.80481 1.93758 6.3456C2.06315 5.88638 2.25987 5.48306 2.54442 5.10139C2.82898 4.71972 3.12507 4.41931 4.05989 3.68897Z" stroke="black" stroke-width="1.5"/>
<path d="M6.63599 11.0703C6.63599 9.94727 7.54639 9.03687 8.66942 9.03687C9.79246 9.03687 10.7029 9.94727 10.7029 11.0703V15.1645H6.63599V11.0703Z" fill="black"/>
</g>
<defs>
<clipPath id="clip0_161_6205">
<rect width="16" height="16" fill="white" transform="translate(0.669922)"/>
</clipPath>
</defs>
</svg>
