<svg width="49" height="48" viewBox="0 0 49 48" fill="none" xmlns="http://www.w3.org/2000/svg">
<path d="M11.2881 40.2126C11.2881 41.1881 12.0789 41.9789 13.0543 41.9789C14.0298 41.9789 14.8206 41.1881 14.8206 40.2126V35.6341C14.8206 34.6586 14.0298 33.8678 13.0543 33.8678C12.0789 33.8678 11.2881 34.6586 11.2881 35.6341V40.2126Z" fill="#FF983E" stroke="black" stroke-width="2"/>
<path d="M34.8191 40.2126C34.8191 41.1881 35.6099 41.9789 36.5853 41.9789C37.5608 41.9789 38.3516 41.1881 38.3516 40.2126V35.6341C38.3516 34.6586 37.5608 33.8678 36.5853 33.8678C35.6099 33.8678 34.8191 34.6586 34.8191 35.6341V40.2126Z" fill="#FF983E" stroke="black" stroke-width="2"/>
<path d="M6.47461 14.0211C6.47461 11.2209 6.47461 9.82072 7.01958 8.75117C7.49894 7.81036 8.26385 7.04545 9.20466 6.56609C10.2742 6.02112 11.6743 6.02112 14.4746 6.02112H35.1652C37.9655 6.02112 39.3656 6.02112 40.4352 6.56609C41.376 7.04545 42.1409 7.81036 42.6203 8.75117C43.1652 9.82072 43.1652 11.2209 43.1652 14.0211V31.1665C43.1652 33.9667 43.1652 35.3669 42.6203 36.4364C42.1409 37.3772 41.376 38.1421 40.4352 38.6215C39.3656 39.1665 37.9655 39.1665 35.1652 39.1665H14.4746C11.6743 39.1665 10.2742 39.1665 9.20466 38.6215C8.26385 38.1421 7.49894 37.3772 7.01958 36.4364C6.47461 35.3669 6.47461 33.9667 6.47461 31.1665V14.0211Z" fill="#FF983E" stroke="black" stroke-width="2"/>
<path d="M12.5691 24.8238C12.5691 23.1436 12.5691 22.3036 12.8961 21.6618C13.1837 21.0973 13.6426 20.6384 14.2071 20.3508C14.8489 20.0238 15.6889 20.0238 17.3691 20.0238H32.2707C33.9509 20.0238 34.7909 20.0238 35.4327 20.3508C35.9972 20.6384 36.4561 21.0973 36.7437 21.6618C37.0707 22.3036 37.0707 23.1436 37.0707 24.8238V29.0678C37.0707 30.7479 37.0707 31.588 36.7437 32.2298C36.4561 32.7942 35.9972 33.2532 35.4327 33.5408C34.7909 33.8678 33.9509 33.8678 32.2707 33.8678H17.3691C15.6889 33.8678 14.8489 33.8678 14.2071 33.5408C13.6426 33.2532 13.1837 32.7942 12.8961 32.2298C12.5691 31.588 12.5691 30.7479 12.5691 29.0678V24.8238Z" fill="white" stroke="black" stroke-width="2"/>
<path d="M42.7826 14.4275H6.85742" stroke="black" stroke-width="2"/>
<circle cx="11.7571" cy="10.3538" r="1.75" fill="black"/>
<circle cx="20.5991" cy="10.3538" r="1.75" fill="black"/>
<path d="M31.1912 10.3538C31.1912 11.3203 30.4077 12.1038 29.4412 12.1038C28.4747 12.1038 27.6912 11.3203 27.6912 10.3538C27.6912 9.38726 28.4747 8.60376 29.4412 8.60376C30.4077 8.60376 31.1912 9.38726 31.1912 10.3538Z" fill="black"/>
<circle cx="38.2832" cy="10.3538" r="1.75" fill="black"/>
</svg>
