<svg width="49" height="48" viewBox="0 0 49 48" fill="none" xmlns="http://www.w3.org/2000/svg">
<path fill-rule="evenodd" clip-rule="evenodd" d="M9.64336 28.0251C9.37536 28.5511 9.37536 29.2396 9.37536 30.6167V30.9081H40.6514V30.6167C40.6514 29.2396 40.6514 28.5511 40.3833 28.0251C40.1476 27.5624 39.7714 27.1862 39.3088 26.9505C38.7828 26.6825 38.0942 26.6825 36.7171 26.6825H13.3096C11.9325 26.6825 11.2439 26.6825 10.7179 26.9505C10.2553 27.1862 9.87911 27.5624 9.64336 28.0251ZM40.6512 30.9082H9.37524V31.6775C9.37528 34.1737 11.1458 36.4323 14.0044 38.061C15.0963 38.6831 15.7308 39.9368 15.3842 41.1447L14.4654 44.3471C14.24 45.1328 14.8298 45.9157 15.6472 45.9157H34.3796C35.197 45.9157 35.7868 45.1328 35.5614 44.3471L34.6425 41.1445C34.2959 39.9366 34.9305 38.6829 36.0223 38.0608C38.8808 36.4321 40.6512 34.1736 40.6512 31.6774V30.9082Z" fill="#FF983E"/>
<path d="M9.64336 28.0251L8.75236 27.5711H8.75236L9.64336 28.0251ZM9.37536 30.9081H8.37536V31.9081H9.37536V30.9081ZM40.6514 30.9081V31.9081H41.6514V30.9081H40.6514ZM40.3833 28.0251L39.4923 28.4791L39.4923 28.4791L40.3833 28.0251ZM39.3088 26.9505L38.8548 27.8415L38.8548 27.8415L39.3088 26.9505ZM10.7179 26.9505L10.264 26.0595H10.264L10.7179 26.9505ZM9.37524 30.9082V29.9082H8.37524V30.9082H9.37524ZM40.6512 30.9082H41.6512V29.9082H40.6512V30.9082ZM9.37524 31.6775H8.37524V31.6775L9.37524 31.6775ZM14.0044 38.061L13.5094 38.9298L13.5094 38.9298L14.0044 38.061ZM15.3842 41.1447L16.3455 41.4205L15.3842 41.1447ZM14.4654 44.3471L13.5042 44.0714H13.5042L14.4654 44.3471ZM35.5614 44.3471L34.6001 44.6229L35.5614 44.3471ZM34.6425 41.1445L35.6037 40.8688L35.6037 40.8688L34.6425 41.1445ZM36.0223 38.0608L35.5273 37.192L36.0223 38.0608ZM40.6512 31.6774L41.6512 31.6774V31.6774H40.6512ZM10.3754 30.6167C10.3754 29.9117 10.3761 29.443 10.4055 29.0832C10.434 28.735 10.4842 28.5776 10.5344 28.4791L8.75236 27.5711C8.53455 27.9986 8.45073 28.4484 8.41218 28.9203C8.37458 29.3805 8.37536 29.9447 8.37536 30.6167H10.3754ZM10.3754 30.9081V30.6167H8.37536V30.9081H10.3754ZM40.6514 29.9081H9.37536V31.9081H40.6514V29.9081ZM39.6514 30.6167V30.9081H41.6514V30.6167H39.6514ZM39.4923 28.4791C39.5425 28.5776 39.5927 28.735 39.6212 29.0832C39.6506 29.443 39.6514 29.9117 39.6514 30.6167H41.6514C41.6514 29.9447 41.6521 29.3805 41.6145 28.9203C41.576 28.4484 41.4922 27.9986 41.2744 27.5711L39.4923 28.4791ZM38.8548 27.8415C39.1293 27.9814 39.3525 28.2046 39.4923 28.4791L41.2744 27.5711C40.9427 26.9203 40.4136 26.3911 39.7628 26.0595L38.8548 27.8415ZM36.7171 27.6825C37.4222 27.6825 37.8908 27.6833 38.2507 27.7127C38.5989 27.7411 38.7562 27.7913 38.8548 27.8415L39.7628 26.0595C39.3353 25.8417 38.8854 25.7579 38.4135 25.7193C37.9533 25.6817 37.3892 25.6825 36.7171 25.6825V27.6825ZM13.3096 27.6825H36.7171V25.6825H13.3096V27.6825ZM11.1719 27.8415C11.2705 27.7913 11.4278 27.7411 11.776 27.7127C12.1359 27.6833 12.6045 27.6825 13.3096 27.6825V25.6825C12.6375 25.6825 12.0734 25.6817 11.6132 25.7193C11.1413 25.7579 10.6914 25.8417 10.264 26.0595L11.1719 27.8415ZM10.5344 28.4791C10.6742 28.2046 10.8974 27.9814 11.1719 27.8415L10.264 26.0595C9.61312 26.3911 9.08397 26.9203 8.75236 27.5711L10.5344 28.4791ZM9.37524 31.9082H40.6512V29.9082H9.37524V31.9082ZM10.3752 31.6775V30.9082H8.37524V31.6775H10.3752ZM14.4994 37.1921C11.7905 35.6487 10.3753 33.66 10.3752 31.6774L8.37524 31.6775C8.37529 34.6875 10.5011 37.2159 13.5094 38.9298L14.4994 37.1921ZM16.3455 41.4205C16.841 39.6933 15.9192 38.001 14.4994 37.1921L13.5094 38.9298C14.2733 39.3651 14.6206 40.1803 14.423 40.8689L16.3455 41.4205ZM15.4266 44.6229L16.3455 41.4205L14.423 40.8689L13.5042 44.0714L15.4266 44.6229ZM15.6472 44.9157C15.4947 44.9157 15.3846 44.7696 15.4266 44.6229L13.5042 44.0714C13.0954 45.4961 14.165 46.9157 15.6472 46.9157V44.9157ZM34.3796 44.9157H15.6472V46.9157H34.3796V44.9157ZM34.6001 44.6229C34.6422 44.7696 34.5321 44.9157 34.3796 44.9157V46.9157C35.8618 46.9157 36.9313 45.4961 36.5226 44.0714L34.6001 44.6229ZM33.6813 41.4203L34.6001 44.6229L36.5226 44.0714L35.6037 40.8688L33.6813 41.4203ZM35.5273 37.192C34.1075 38.0009 33.1857 39.6931 33.6813 41.4203L35.6037 40.8688C35.4061 40.1801 35.7534 39.365 36.5174 38.9297L35.5273 37.192ZM39.6512 31.6774C39.6512 33.6598 38.2361 35.6486 35.5273 37.192L36.5174 38.9297C39.5255 37.2157 41.6512 34.6873 41.6512 31.6774L39.6512 31.6774ZM39.6512 30.9082V31.6774H41.6512V30.9082H39.6512Z" fill="black"/>
<path d="M19.4146 25.0043C19.4146 23.6272 19.4146 22.9386 19.6826 22.4127C19.9183 21.95 20.2945 21.5738 20.7571 21.3381C21.2831 21.0701 21.9717 21.0701 23.3488 21.0701H36.7169C38.094 21.0701 38.7825 21.0701 39.3085 21.3381C39.7712 21.5738 40.1474 21.95 40.3831 22.4127C40.6511 22.9386 40.6511 23.6272 40.6511 25.0043V25.5022C40.6511 25.9153 40.6511 26.1219 40.5707 26.2797C40.5 26.4185 40.3871 26.5313 40.2483 26.602C40.0905 26.6824 39.884 26.6824 39.4708 26.6824H20.5948C20.1817 26.6824 19.9751 26.6824 19.8173 26.602C19.6785 26.5313 19.5657 26.4185 19.495 26.2797C19.4146 26.1219 19.4146 25.9153 19.4146 25.5022V25.0043Z" fill="#FF983E" stroke="black" stroke-width="2"/>
<path d="M8.98853 7.29748C8.98853 5.87835 8.98853 5.16878 9.18121 4.59629C9.54912 3.50316 10.4072 2.64507 11.5003 2.27716C12.0728 2.08447 12.7824 2.08447 14.2015 2.08447C15.6207 2.08447 16.3302 2.08447 16.9027 2.27716C17.9959 2.64507 18.854 3.50316 19.2219 4.59629C19.4146 5.16878 19.4146 5.87835 19.4146 7.29749V22.7477C19.4146 24.1248 19.4146 24.8133 19.1466 25.3393C18.9108 25.802 18.5346 26.1782 18.072 26.4139C17.546 26.6819 16.8574 26.6819 15.4803 26.6819H12.9228C11.5457 26.6819 10.8571 26.6819 10.3311 26.4139C9.86844 26.1782 9.49227 25.802 9.25653 25.3393C8.98853 24.8133 8.98853 24.1248 8.98853 22.7477V7.29748Z" fill="#FF983E" stroke="black" stroke-width="2"/>
<path d="M16.2017 7.08423C16.2017 8.1888 15.3062 9.08423 14.2017 9.08423C13.0971 9.08423 12.2017 8.1888 12.2017 7.08423C12.2017 5.97966 13.0971 5.08423 14.2017 5.08423C15.3062 5.08423 16.2017 5.97966 16.2017 7.08423Z" fill="black"/>
</svg>
