<svg width="16" height="16" viewBox="0 0 16 16" fill="none" xmlns="http://www.w3.org/2000/svg">
<g clip-path="url(#clip0_202_12029)">
<path d="M3.0194 9.58499L3.55986 9.065L3.0194 9.58499ZM2.20245 2.65805L2.74474 3.17615L2.20245 2.65805ZM8 14.29L7.51344 14.8608C7.76034 15.0713 8.11459 15.0991 8.39136 14.9298C8.66813 14.7605 8.80466 14.4324 8.72972 14.1168L8 14.29ZM8 4.01417L7.27018 4.18696C7.2936 4.28589 7.33689 4.37901 7.39741 4.46069L8 4.01417ZM7.48811 10.7341L7.908 11.3556L7.48811 10.7341ZM7.28156 11.2639L8.01127 11.0907L7.28156 11.2639ZM8.86106 9.20398L8.23898 9.62293L8.86106 9.20398ZM7.88952 6.78736L8.25198 7.44396L7.88952 6.78736ZM7.71644 7.5044L7.09436 7.92335L7.71644 7.5044ZM9.08605 5.47981L8.48346 5.92633L9.08605 5.47981ZM8.92596 6.21522L9.28842 6.87183L8.92596 6.21522ZM3.55986 9.065C1.31316 6.72984 1.57283 4.40277 2.74474 3.17615L1.66016 2.13995C-0.194644 4.08135 -0.18747 7.33361 2.47893 10.105L3.55986 9.065ZM8 14.29C8.48657 13.7193 8.48659 13.7193 8.4866 13.7193C8.48659 13.7193 8.48659 13.7193 8.48657 13.7193C8.48653 13.7192 8.48646 13.7192 8.48634 13.7191C8.48611 13.7189 8.48573 13.7186 8.4852 13.7181C8.48414 13.7172 8.48247 13.7158 8.4802 13.7138C8.47567 13.71 8.46876 13.704 8.45955 13.6961C8.44113 13.6803 8.4135 13.6566 8.37729 13.6252C8.30488 13.5626 8.19818 13.4699 8.06226 13.3505C7.79036 13.1116 7.40176 12.7661 6.9368 12.3413C6.00598 11.4908 4.77335 10.3263 3.55986 9.065L2.47893 10.105C3.722 11.397 4.97967 12.5849 5.92501 13.4487C6.39814 13.881 6.79408 14.233 7.07221 14.4773C7.2113 14.5995 7.32099 14.6949 7.3962 14.7599C7.43381 14.7924 7.46281 14.8174 7.48256 14.8343C7.49243 14.8428 7.49999 14.8493 7.50517 14.8537C7.50775 14.8559 7.50974 14.8576 7.51112 14.8588C7.51181 14.8594 7.51235 14.8598 7.51274 14.8602C7.51293 14.8603 7.51309 14.8605 7.5132 14.8606C7.51326 14.8606 7.51332 14.8607 7.51335 14.8607C7.5134 14.8607 7.51344 14.8608 8 14.29ZM2.74474 3.17615C3.28377 2.61195 4.30114 2.33241 5.30606 2.51526C6.28781 2.6939 7.05329 3.27089 7.27018 4.18696L8.72982 3.84137C8.33762 2.18483 6.961 1.29176 5.57459 1.03949C4.21134 0.791436 2.63449 1.12014 1.66016 2.13995L2.74474 3.17615ZM7.39741 4.46069L8.48346 5.92633L9.68864 5.03328L8.60259 3.56764L7.39741 4.46069ZM8.56351 5.55862L7.52706 6.13076L8.25198 7.44396L9.28842 6.87183L8.56351 5.55862ZM7.09436 7.92335L8.23898 9.62293L9.48313 8.78503L8.33852 7.08544L7.09436 7.92335ZM8.30638 9.27613L7.06823 10.1127L7.908 11.3556L9.14614 10.519L8.30638 9.27613ZM6.55184 11.4372L7.27028 14.4633L8.72972 14.1168L8.01127 11.0907L6.55184 11.4372ZM7.06823 10.1127C6.63737 10.4038 6.43173 10.9312 6.55184 11.4372L8.01127 11.0907C8.0353 11.1919 7.99417 11.2974 7.908 11.3556L7.06823 10.1127ZM8.23898 9.62293C8.16193 9.50853 8.19209 9.35334 8.30638 9.27613L9.14614 10.519C9.71756 10.1329 9.86836 9.35703 9.48313 8.78503L8.23898 9.62293ZM7.52706 6.13076C6.88459 6.48542 6.68442 7.31465 7.09436 7.92335L8.33852 7.08544C8.42051 7.20718 8.38047 7.37303 8.25198 7.44396L7.52706 6.13076ZM8.48346 5.92633C8.3934 5.80479 8.43107 5.63173 8.56351 5.55862L9.28842 6.87183C9.9506 6.50629 10.139 5.641 9.68864 5.03328L8.48346 5.92633Z" fill="black"/>
<path d="M12.9872 9.58499L12.4467 9.065L12.9872 9.58499ZM13.8041 2.65805L13.2619 3.17615L13.8041 2.65805ZM8.00659 14.29L8.49316 14.8608C8.29457 15.0301 8.02226 15.084 7.77415 15.0031C7.52605 14.9222 7.33781 14.7182 7.27714 14.4644L8.00659 14.29ZM8.00659 4.01417L7.40184 4.45777C7.27185 4.28055 7.22613 4.05524 7.27677 3.84137L8.00659 4.01417ZM7.289 11.2881L6.55955 11.4624L7.289 11.2881ZM8.8768 9.17764L9.49413 8.75172L8.8768 9.17764ZM8.75341 9.87021L8.32118 9.25729L8.75341 9.87021ZM7.72637 7.51025L7.10905 7.93617L7.72637 7.51025ZM9.09057 5.49192L8.48582 5.93552L9.09057 5.49192ZM8.92678 6.22663L8.56772 5.56817L8.92678 6.22663ZM12.4467 9.065C14.6934 6.72984 14.4338 4.40277 13.2619 3.17615L14.3464 2.13995C16.2012 4.08135 16.1941 7.33361 13.5277 10.105L12.4467 9.065ZM8.00659 14.29C7.52003 13.7193 7.52001 13.7193 7.52 13.7193C7.52 13.7193 7.52 13.7193 7.52002 13.7193C7.52006 13.7192 7.52014 13.7192 7.52025 13.7191C7.52048 13.7189 7.52086 13.7186 7.52139 13.7181C7.52245 13.7172 7.52412 13.7158 7.52639 13.7138C7.53092 13.71 7.53783 13.704 7.54704 13.6961C7.56546 13.6803 7.59309 13.6566 7.6293 13.6252C7.70171 13.5626 7.80841 13.4699 7.94434 13.3505C8.21623 13.1116 8.60484 12.7661 9.06979 12.3413C10.0006 11.4908 11.2332 10.3263 12.4467 9.065L13.5277 10.105C12.2846 11.397 11.0269 12.5849 10.0816 13.4487C9.60845 13.881 9.21251 14.233 8.93438 14.4773C8.79529 14.5995 8.6856 14.6949 8.61039 14.7599C8.57278 14.7924 8.54378 14.8174 8.52403 14.8343C8.51416 14.8428 8.5066 14.8493 8.50142 14.8537C8.49884 14.8559 8.49685 14.8576 8.49547 14.8588C8.49478 14.8594 8.49424 14.8598 8.49385 14.8602C8.49366 14.8603 8.49351 14.8605 8.49339 14.8606C8.49333 14.8606 8.49327 14.8607 8.49324 14.8607C8.4932 14.8607 8.49316 14.8608 8.00659 14.29ZM13.2619 3.17615C12.7228 2.61195 11.7054 2.33241 10.7005 2.51526C9.71878 2.6939 8.9533 3.27089 8.73641 4.18696L7.27677 3.84137C7.66897 2.18483 9.04559 1.29176 10.432 1.03949C11.7952 0.791436 13.3721 1.12014 14.3464 2.13995L13.2619 3.17615ZM8.61134 3.57057L9.69532 5.04832L8.48582 5.93552L7.40184 4.45777L8.61134 3.57057ZM9.28583 6.8851L8.2576 7.44578L7.53949 6.12885L8.56772 5.56817L9.28583 6.8851ZM8.34369 7.08432L9.49413 8.75172L8.25948 9.60357L7.10905 7.93617L8.34369 7.08432ZM9.18565 10.4831L7.91938 11.3761L7.0549 10.1503L8.32118 9.25729L9.18565 10.4831ZM8.01845 11.1137L8.73604 14.1157L7.27714 14.4644L6.55955 11.4624L8.01845 11.1137ZM7.91938 11.3761C8.00299 11.3172 8.04223 11.2132 8.01845 11.1137L6.55955 11.4624C6.44062 10.9649 6.63684 10.4451 7.0549 10.1503L7.91938 11.3761ZM9.49413 8.75172C9.88334 9.31583 9.74574 10.0881 9.18565 10.4831L8.32118 9.25729C8.20916 9.33629 8.18164 9.49075 8.25948 9.60357L9.49413 8.75172ZM8.2576 7.44578C8.3879 7.37473 8.42797 7.20647 8.34369 7.08432L7.10905 7.93617C6.68763 7.32539 6.888 6.4841 7.53949 6.12885L8.2576 7.44578ZM9.69532 5.04832C10.1428 5.65834 9.95004 6.52291 9.28583 6.8851L8.56772 5.56817C8.43488 5.6406 8.39633 5.81352 8.48582 5.93552L9.69532 5.04832Z" fill="black"/>
</g>
<defs>
<clipPath id="clip0_202_12029">
<rect width="16" height="16" fill="white"/>
</clipPath>
</defs>
</svg>
