<svg width="48" height="48" viewBox="0 0 48 48" fill="none" xmlns="http://www.w3.org/2000/svg">
<rect x="2.77026" y="9.47961" width="42.4596" height="29.0409" rx="5" fill="#FF983E" stroke="black" stroke-width="2"/>
<path d="M26.5643 21.2288C28.1394 22.1383 28.927 22.593 29.1913 23.1866C29.4219 23.7045 29.4219 24.2958 29.1913 24.8136C28.927 25.4073 28.1394 25.862 26.5643 26.7714L23.9821 28.2622C22.4069 29.1717 21.6193 29.6264 20.973 29.5585C20.4093 29.4992 19.8972 29.2035 19.564 28.745C19.1821 28.2192 19.1821 27.3098 19.1821 25.4909L19.1821 22.5093C19.1821 20.6904 19.1821 19.781 19.564 19.2553C19.8972 18.7967 20.4093 18.501 20.973 18.4418C21.6193 18.3739 22.4069 18.8286 23.9821 19.738L26.5643 21.2288Z" fill="white" stroke="black" stroke-width="2"/>
</svg>
