<svg width="21" height="22" viewBox="0 0 21 22" fill="none" xmlns="http://www.w3.org/2000/svg">
<path d="M6.05413 20.3158C5.8799 20.5237 5.68038 20.6277 5.45556 20.6277C5.23074 20.6333 5.03122 20.5659 4.85699 20.4254C4.68838 20.2849 4.58721 20.1022 4.55349 19.8774C4.52538 19.6526 4.61812 19.4165 4.8317 19.1692L7.45362 16.0583L7.90044 14.0097L9.32521 15.797L9.11444 16.4461C9.05824 16.6091 9.00766 16.73 8.96269 16.8086C8.92335 16.8873 8.83905 17.0025 8.70978 17.1543L6.05413 20.3158ZM12.5288 20.0544L10.6741 16.3028C10.6348 16.2354 10.601 16.1707 10.5729 16.1089C10.5448 16.0471 10.4858 15.96 10.3959 15.8475L8.60861 13.5966C8.27138 13.175 8.03814 12.8125 7.90887 12.509C7.7796 12.1999 7.73464 11.8009 7.77398 11.3119L7.92573 9.36441C7.93697 9.24638 7.88077 9.16208 7.75712 9.11149C7.63347 9.06091 7.51263 9.08901 7.3946 9.1958L6.74544 9.78594L6.55154 12.0791C6.52344 12.3601 6.43632 12.5709 6.29019 12.7114C6.14406 12.8519 5.95016 12.9137 5.70848 12.8968C5.46118 12.8856 5.27009 12.7957 5.1352 12.6271C5.00593 12.4584 4.94972 12.2421 4.96659 11.9779L5.12677 9.88711C5.14925 9.60047 5.20264 9.35598 5.28695 9.15365C5.37687 8.95131 5.53425 8.74055 5.75906 8.52135L7.10796 7.18931C7.54073 6.76778 7.93697 6.44461 8.29668 6.21979C8.65638 5.98936 9.06948 5.87414 9.53598 5.87414C10.1598 5.87414 10.6376 6.07928 10.9692 6.48957C11.3064 6.89986 11.4525 7.40851 11.4076 8.01551L11.2305 10.57C11.1968 11.0252 11.1462 11.4215 11.0788 11.7587C11.0113 12.0959 10.8989 12.4922 10.7416 12.9474L10.6572 13.1835L11.8122 14.819C11.8965 14.937 11.9837 15.0663 12.0736 15.2068C12.1635 15.3473 12.2422 15.4878 12.3096 15.6284L14.1138 19.2872C14.2599 19.5851 14.288 19.8437 14.1981 20.0629C14.1082 20.2821 13.9564 20.4394 13.7428 20.535C13.5349 20.6305 13.3129 20.6446 13.0768 20.5771C12.8464 20.5097 12.6637 20.3354 12.5288 20.0544ZM15.606 9.33912C15.8702 9.33912 16.0837 9.41218 16.2467 9.55831C16.4097 9.69882 16.4912 9.88711 16.4912 10.1232C16.4912 10.3761 16.4097 10.5728 16.2467 10.7133C16.0894 10.8538 15.8758 10.9241 15.606 10.9241H13.7007C13.4365 10.9241 13.2286 10.8988 13.0768 10.8482C12.9251 10.792 12.7789 10.6908 12.6384 10.5447L12.0904 10.0051L12.2253 7.85533L13.5574 9.33912H15.606ZM10.5224 5.08166C10.1795 5.08166 9.86758 5.00016 9.58656 4.83717C9.30554 4.66856 9.08072 4.44374 8.91211 4.16272C8.74912 3.8817 8.66762 3.56977 8.66762 3.22693C8.66762 2.88408 8.74912 2.57215 8.91211 2.29113C9.08072 2.01011 9.30554 1.7881 9.58656 1.62511C9.86758 1.4565 10.1795 1.37219 10.5224 1.37219C10.8652 1.37219 11.1771 1.4565 11.4582 1.62511C11.7392 1.7881 11.9612 2.01011 12.1242 2.29113C12.2928 2.57215 12.3771 2.88408 12.3771 3.22693C12.3771 3.56977 12.2928 3.8817 12.1242 4.16272C11.9612 4.44374 11.7392 4.66856 11.4582 4.83717C11.1771 5.00016 10.8652 5.08166 10.5224 5.08166Z" fill="black"/>
</svg>
