<svg width="49" height="48" viewBox="0 0 49 48" fill="none" xmlns="http://www.w3.org/2000/svg">
<path d="M5.74048 12.0211C5.74048 9.22086 5.74048 7.82072 6.28545 6.75117C6.76481 5.81036 7.52972 5.04545 8.47053 4.56609C9.54008 4.02112 10.9402 4.02112 13.7405 4.02112H34.4311C37.2314 4.02112 38.6315 4.02112 39.7011 4.56609C40.6419 5.04545 41.4068 5.81036 41.8861 6.75117C42.4311 7.82072 42.4311 9.22086 42.4311 12.0211V36.0211C42.4311 38.8214 42.4311 40.2215 41.8861 41.2911C41.4068 42.2319 40.6419 42.9968 39.7011 43.4762C38.6315 44.0211 37.2314 44.0211 34.4311 44.0211H13.7405C10.9402 44.0211 9.54008 44.0211 8.47053 43.4762C7.52972 42.9968 6.76481 42.2319 6.28545 41.2911C5.74048 40.2215 5.74048 38.8214 5.74048 36.0211V12.0211Z" fill="#FF983E" stroke="black" stroke-width="2"/>
<path d="M15.0859 29.4573C15.0859 24.4867 19.1154 20.4573 24.0859 20.4573C29.0565 20.4573 33.0859 24.4867 33.0859 29.4573C33.0859 34.4278 29.0565 38.4573 24.0859 38.4573C19.1154 38.4573 15.0859 34.4278 15.0859 29.4573Z" fill="white"/>
<path d="M30.2549 36.1241L33.5046 29.2643L28.8268 28.0825L25.0844 29.7568L21.0234 30.504L16.5656 28.0825H14.9407L17.1073 34.9423L23.3609 38.6354L30.2549 36.1241Z" fill="#0FA9A7"/>
<path d="M42.0485 14.4275H6.12329" stroke="black" stroke-width="2"/>
<path d="M33.2872 29.4248L32.7449 28.9992C30.7102 27.4024 27.8586 27.3646 25.7824 28.907L25.6137 29.0323C23.6371 30.5008 20.9159 30.4598 18.9788 28.9396C17.8707 28.0699 16.5073 27.6875 15.1755 27.7938" stroke="black" stroke-width="2"/>
<path d="M15.0859 29.4573C15.0859 24.4867 19.1154 20.4573 24.0859 20.4573V20.4573C29.0565 20.4573 33.0859 24.4867 33.0859 29.4573V29.4573C33.0859 34.4278 29.0565 38.4573 24.0859 38.4573V38.4573C19.1154 38.4573 15.0859 34.4278 15.0859 29.4573V29.4573Z" stroke="black" stroke-width="2"/>
<circle cx="37.637" cy="9.24658" r="1.75" fill="black"/>
<path d="M33.0859 9.24658H27.0859" stroke="black" stroke-width="2" stroke-linecap="round"/>
<rect x="9.13965" y="7.24658" width="8.54956" height="4" rx="2" fill="white" stroke="black" stroke-width="2"/>
</svg>
