<svg width="48" height="48" viewBox="0 0 48 48" fill="none" xmlns="http://www.w3.org/2000/svg">
<rect x="22.0684" y="0.763306" width="24.4165" height="31.5629" rx="4" transform="rotate(9.46387 22.0684 0.763306)" fill="#FF983E" stroke="black" stroke-width="2"/>
<path d="M33.04 9.36843C34.1488 9.55331 35.1323 9.93117 35.957 10.5309L35.9558 10.5317C36.7715 11.1187 37.3808 11.867 37.7534 12.7728C38.1392 13.6907 38.228 14.6828 38.0556 15.717C37.9385 16.4198 37.7171 17.0665 37.3768 17.6394L37.3754 17.6421C37.0458 18.1922 36.6245 18.6649 36.1178 19.0571L36.1186 19.0583C35.6339 19.4383 35.0846 19.7444 34.4802 19.9841C34.0373 20.1674 33.701 20.3612 33.4528 20.5524C33.2497 20.7138 33.0799 20.921 32.9456 21.1896C32.9015 21.2778 32.8581 21.3798 32.8154 21.4956C32.6378 21.977 32.2932 22.4273 31.8372 22.7255C31.9676 22.8478 32.0883 22.9843 32.1965 23.1359L32.1955 23.1357C32.616 23.7105 32.7811 24.3804 32.6633 25.0868C32.5851 25.556 32.3877 25.9812 32.0766 26.3434L32.0774 26.3445C31.7864 26.6861 31.4262 26.9434 31.0087 27.1079C30.5667 27.282 30.1024 27.3241 29.6381 27.2467C28.9379 27.1299 28.3561 26.7674 27.9394 26.1943L27.9346 26.1876C27.5181 25.6045 27.3601 24.93 27.478 24.2225C27.581 23.6044 27.8777 23.0806 28.3423 22.6845L28.5515 22.5223C28.6844 22.428 28.8224 22.3477 28.9641 22.2802C28.5721 21.7977 28.3886 21.1456 28.5791 20.4558C28.7195 19.9474 28.8876 19.4883 29.0907 19.0916L29.0948 19.0844C29.4408 18.4222 29.8842 17.8622 30.4446 17.4491C30.9317 17.0901 31.4841 16.7922 32.0925 16.5496L32.3078 16.4519C32.5174 16.3507 32.7113 16.238 32.8899 16.1133C33.0886 15.9745 33.2535 15.8066 33.3892 15.6064C33.5049 15.4358 33.5925 15.2246 33.6373 14.9558C33.6899 14.64 33.6535 14.4079 33.574 14.2245C33.4791 14.0052 33.3392 13.8285 33.1387 13.6826L33.1245 13.6723C32.9275 13.5238 32.6848 13.4169 32.3738 13.365C32.1032 13.3199 31.8399 13.3328 31.5753 13.4042C31.361 13.462 31.163 13.5769 30.9737 13.7762L30.969 13.7803C30.9333 13.8174 30.8979 13.8604 30.8634 13.9092C30.4134 14.5463 29.504 15.4042 28.2704 15.1987C27.6466 15.0947 27.1002 14.7349 26.7736 14.2235C26.4374 13.6968 26.3356 13 26.6486 12.3364L26.7178 12.1945C26.9443 11.7479 27.2255 11.344 27.5633 10.989C28.2509 10.2619 29.0889 9.76129 30.0579 9.49405L30.0611 9.49261C31.0148 9.23255 32.0124 9.19712 33.04 9.36843Z" fill="white" stroke="black" stroke-width="2"/>
<rect x="0.506592" y="11.9688" width="28.2659" height="36.5389" rx="4" transform="rotate(-13.3695 0.506592 11.9688)" fill="#FF983E" stroke="black" stroke-width="2"/>
<path d="M16.1148 16.3746C17.3593 16.0789 18.551 16.0431 19.6705 16.3044L19.6712 16.3032C20.7813 16.5567 21.7432 17.07 22.5269 17.8489C23.3269 18.6316 23.853 19.623 24.1277 20.7788C24.3145 21.5651 24.3678 22.3341 24.2651 23.0759L24.2648 23.079C24.1626 23.7975 23.9317 24.4758 23.5744 25.1071L23.5732 25.1063C23.2351 25.7131 22.7983 26.2735 22.272 26.7898C21.8747 27.1915 21.5935 27.5595 21.4062 27.8899C21.2495 28.1754 21.1553 28.496 21.1312 28.8657C21.1234 28.9861 21.1218 29.12 21.1284 29.2678C21.1569 29.8994 20.9587 30.5755 20.5399 31.095C20.7946 31.1684 21.0429 31.2775 21.2805 31.4239L21.2796 31.4241C21.9513 31.827 22.4024 32.4321 22.5842 33.1969C22.7051 33.7053 22.6871 34.2189 22.527 34.7171L22.5281 34.7179C22.3788 35.1887 22.1229 35.6029 21.7696 35.9481C21.3977 36.3114 20.9477 36.552 20.444 36.6717C19.685 36.852 18.943 36.7328 18.2759 36.3298L18.2688 36.3254C17.598 35.9122 17.1524 35.2981 16.9701 34.5312C16.8111 33.862 16.8875 33.2078 17.1888 32.6092L17.3315 32.3564C17.4654 32.1403 17.6221 31.9495 17.7961 31.7813C17.1102 31.4918 16.5664 30.8805 16.4565 30.0349C16.3788 29.4364 16.3521 28.8817 16.3896 28.3806L16.3906 28.3723C16.4608 27.529 16.6777 26.7565 17.0754 26.0886C17.4286 25.4957 17.878 24.9363 18.4148 24.4091C18.6762 24.1399 18.8979 23.8602 19.0814 23.5691C19.2414 23.3154 19.3502 23.0441 19.4088 22.7505C19.4604 22.4921 19.4558 22.2052 19.3782 21.8785C19.2866 21.493 19.1312 21.2325 18.939 21.0484C18.7185 20.8372 18.464 20.6988 18.1573 20.6269L18.1403 20.6229C17.8365 20.5462 17.5039 20.5414 17.1264 20.631C16.7952 20.7098 16.4993 20.8525 16.231 21.0617C16.0043 21.2385 15.8278 21.4732 15.7059 21.7958L15.7034 21.8024C15.679 21.8657 15.6578 21.9347 15.6413 22.0098C15.4514 22.8733 14.8899 24.1177 13.5718 24.4309C12.902 24.5901 12.2035 24.4587 11.6629 24.0856C11.1077 23.7023 10.7163 23.0547 10.7496 22.2661C10.7521 22.2067 10.7553 22.147 10.7595 22.088C10.7993 21.5255 10.9143 20.9847 11.1088 20.4703L11.2701 20.0806C11.6728 19.1915 12.2693 18.4343 13.0502 17.8186L13.0528 17.817C13.934 17.1263 14.9611 16.6488 16.1148 16.3746Z" fill="white" stroke="black" stroke-width="2"/>
</svg>
