<svg width="17" height="16" viewBox="0 0 17 16" fill="none" xmlns="http://www.w3.org/2000/svg">
<g clip-path="url(#clip0_263_9140)">
<path fill-rule="evenodd" clip-rule="evenodd" d="M7.61322 1.43628L8.71392 1.43628C9.10052 1.43628 9.41392 1.74968 9.41392 2.13628C9.41392 2.52288 9.10052 2.83628 8.71392 2.83628H7.64419C6.51253 2.83628 5.70589 2.83682 5.074 2.88845C4.45028 2.93941 4.05872 3.03663 3.74602 3.19596C3.12509 3.51234 2.62025 4.01718 2.30387 4.63811C2.14454 4.95081 2.04732 5.34237 1.99636 5.96609C1.94473 6.59798 1.94419 7.40462 1.94419 8.53628V8.67573C1.94419 9.80739 1.94473 10.614 1.99636 11.2459C2.04732 11.8696 2.14454 12.2612 2.30387 12.5739C2.62025 13.1948 3.12509 13.6997 3.74602 14.0161C4.05872 14.1754 4.45028 14.2726 5.074 14.3236C5.70589 14.3752 6.51253 14.3757 7.64419 14.3757H7.78364C8.9153 14.3757 9.72194 14.3752 10.3538 14.3236C10.9776 14.2726 11.3691 14.1754 11.6818 14.0161C12.3027 13.6997 12.8076 13.1948 13.124 12.5739C13.2833 12.2612 13.3805 11.8696 13.4315 11.2459C13.4831 10.614 13.4836 9.80739 13.4836 8.67573V7.60601C13.4836 7.21941 13.797 6.90601 14.1836 6.90601C14.5702 6.90601 14.8836 7.21941 14.8836 7.60601V8.70671C14.8836 9.80058 14.8837 10.6644 14.8268 11.3599C14.7688 12.0702 14.648 12.6665 14.3714 13.2095C13.9208 14.0938 13.2018 14.8129 12.3174 15.2635C11.7744 15.5401 11.1781 15.6609 10.4678 15.7189C9.77227 15.7757 8.90849 15.7757 7.81462 15.7757H7.61321C6.51934 15.7757 5.65557 15.7757 4.96 15.7189C4.2497 15.6609 3.65339 15.5401 3.11043 15.2635C2.22607 14.8129 1.50706 14.0938 1.05646 13.2095C0.779812 12.6665 0.659045 12.0702 0.601011 11.3599C0.544181 10.6644 0.544185 9.80057 0.54419 8.7067V8.50531C0.544185 7.41144 0.544181 6.54766 0.601011 5.85209C0.659045 5.14179 0.779812 4.54548 1.05646 4.00252C1.50706 3.11816 2.22607 2.39915 3.11043 1.94855C3.65339 1.6719 4.2497 1.55113 4.96 1.4931C5.65557 1.43627 6.51935 1.43627 7.61322 1.43628Z" fill="black"/>
<path fill-rule="evenodd" clip-rule="evenodd" d="M15.5455 0.77435C15.9732 1.202 15.9732 1.89535 15.5455 2.323L8.40491 9.46363C8.34424 9.5243 8.27636 9.5773 8.20278 9.62144L6.15692 10.849C5.71058 11.1168 5.20312 10.6093 5.47092 10.163L6.69844 8.1171C6.74259 8.04353 6.79559 7.97565 6.85626 7.91498L13.9969 0.77435C14.4245 0.346701 15.1179 0.346701 15.5455 0.77435Z" fill="black"/>
</g>
<defs>
<clipPath id="clip0_263_9140">
<rect width="16" height="16" fill="white" transform="translate(0.319824)"/>
</clipPath>
</defs>
</svg>
