<svg width="49" height="48" viewBox="0 0 49 48" fill="none" xmlns="http://www.w3.org/2000/svg">
<path fill-rule="evenodd" clip-rule="evenodd" d="M13.5672 8.46615L33.8747 8.46161C37.2344 8.46161 38.4527 8.80289 39.6809 9.44374C40.9092 10.0846 41.8731 11.025 42.53 12.2233C43.1868 13.4216 43.5366 14.6101 43.5366 17.8879V31.46C43.5366 32.4587 43.443 33.3452 43.2376 34.1618C43.0323 34.9784 42.7153 35.725 42.2686 36.4441C41.822 37.1631 41.2457 37.8546 40.5219 38.5608C39.798 39.267 39.0892 39.8292 38.3522 40.265C37.6152 40.7007 36.8499 41.01 36.0129 41.2103C35.1759 41.4106 34.2673 41.502 33.2436 41.502H14.2112C10.8516 41.502 9.63328 41.1608 8.40504 40.5199C7.1768 39.8791 6.21287 38.9386 5.556 37.7404C4.94292 36.622 4.59732 35.512 4.55397 32.7041L4.54932 17.8879C4.54932 14.6101 4.89913 13.4216 5.556 12.2233C6.21287 11.025 7.1768 10.0846 8.40504 9.44374L8.9009 9.20347C9.91197 8.75529 11.1002 8.5024 13.5672 8.46615Z" fill="#FF983E"/>
<path d="M4.54932 17.4629H43.1625" stroke="black" stroke-width="2"/>
<path d="M16.7488 6.20251V10.7208" stroke="black" stroke-width="2" stroke-linecap="round"/>
<path d="M30.9624 6.20251V10.7208" stroke="black" stroke-width="2" stroke-linecap="round"/>
<path d="M22.0916 24.6335C22.4682 23.5585 23.6457 23.0165 24.7029 23.3689C25.3011 23.5684 25.7818 24.031 25.9929 24.6335L26.4128 25.8318L27.7283 25.8523C28.8449 25.869 29.7784 26.7728 29.7605 27.9216C29.7505 28.5621 29.4371 29.1538 28.9255 29.5281L27.8943 30.282L28.2712 31.4744C28.6182 32.5728 27.9789 33.7072 26.9021 34.031C26.2995 34.2121 25.6435 34.112 25.1228 33.7546L24.0417 33.0125L22.9626 33.7546C22.0404 34.3877 20.7626 34.1791 20.1023 33.2634C19.7296 32.7464 19.6205 32.0847 19.8132 31.4744L20.1892 30.282L19.1589 29.5281C18.2411 28.8565 18.045 27.5672 18.7439 26.658C19.131 26.1545 19.7283 25.8616 20.3572 25.8523L21.6716 25.8318L22.0916 24.6335Z" fill="white" stroke="black" stroke-width="2"/>
<path opacity="0.7" d="M37.5246 40.6903L33.2871 41.7974V35.7277L37.9063 31.2997H43.1362L42.8308 35.9951L37.5246 40.6903Z" fill="white"/>
<path d="M33.3059 41.5021V39.0622C33.3059 36.4401 33.5858 35.4892 34.1113 34.5306C34.6367 33.572 35.4079 32.8196 36.3905 32.3069C37.3731 31.7943 38.3477 31.5212 41.0354 31.5212H43.5363" stroke="black" stroke-width="2"/>
<path fill-rule="evenodd" clip-rule="evenodd" d="M13.5672 8.46615L33.8747 8.46161C37.2344 8.46161 38.4527 8.80289 39.6809 9.44374C40.9092 10.0846 41.8731 11.025 42.53 12.2233C43.1868 13.4216 43.5366 14.6101 43.5366 17.8879V31.46C43.5366 32.4588 43.443 33.3452 43.2376 34.1618C43.0323 34.9784 42.7153 35.725 42.2686 36.4441C41.822 37.1631 41.2457 37.8546 40.5219 38.5608C39.798 39.267 39.0892 39.8292 38.3522 40.265C37.6152 40.7007 36.8499 41.01 36.0129 41.2103C35.1759 41.4106 34.2673 41.502 33.2436 41.502H14.2112C10.8516 41.502 9.63328 41.1608 8.40504 40.5199C7.1768 39.8791 6.21287 38.9386 5.556 37.7404C4.94292 36.622 4.59732 35.512 4.55397 32.7041L4.54932 17.8879C4.54932 14.6101 4.89913 13.4216 5.556 12.2233C6.21287 11.025 7.1768 10.0846 8.40504 9.44374L8.9009 9.20347C9.91197 8.75529 11.1002 8.5024 13.5672 8.46615Z" stroke="black" stroke-width="2"/>
</svg>
