<svg width="48" height="48" viewBox="0 0 48 48" fill="none" xmlns="http://www.w3.org/2000/svg">
<path fill-rule="evenodd" clip-rule="evenodd" d="M18.2353 19.2245C11.7961 20.3379 6.89917 25.9527 6.89917 32.7105C6.89917 40.2687 13.0248 46.3971 20.5827 46.3971C28.1406 46.3971 34.2662 40.2687 34.2662 32.7105C34.2662 32.2985 34.248 31.8907 34.2124 31.4879L32.9367 27.9092H27.1903C28.1705 29.2569 28.7488 30.916 28.7488 32.7105C28.7488 37.223 25.092 40.8797 20.5827 40.8797C16.0734 40.8797 12.4166 37.223 12.4166 32.7105C12.4166 28.9388 14.9714 25.765 18.4432 24.8246C18.3704 24.2355 18.3837 23.5632 18.4758 22.8089L18.2353 19.2245Z" fill="#FF983E"/>
<path d="M18.2353 19.2245L19.2331 19.1575C19.2141 18.8749 19.0761 18.6135 18.8534 18.4384C18.6306 18.2633 18.3441 18.1908 18.0649 18.2391L18.2353 19.2245ZM34.2124 31.4879L35.2085 31.3997C35.201 31.3152 35.1828 31.232 35.1543 31.1521L34.2124 31.4879ZM32.9367 27.9092L33.8786 27.5735C33.7366 27.1752 33.3595 26.9092 32.9367 26.9092V27.9092ZM27.1903 27.9092V26.9092C26.8141 26.9092 26.4698 27.1203 26.2991 27.4555C26.1285 27.7907 26.1603 28.1933 26.3815 28.4975L27.1903 27.9092ZM18.4432 24.8246L18.7047 25.7898C19.1852 25.6597 19.4968 25.1959 19.4357 24.7019L18.4432 24.8246ZM18.4758 22.8089L19.4684 22.9301C19.476 22.8677 19.4778 22.8047 19.4736 22.742L18.4758 22.8089ZM7.89917 32.7105C7.89917 26.4473 12.4379 21.2418 18.4057 20.2099L18.0649 18.2391C11.1542 19.4341 5.89917 25.4582 5.89917 32.7105H7.89917ZM20.5827 45.3971C13.5773 45.3971 7.89917 39.7167 7.89917 32.7105H5.89917C5.89917 40.8207 12.4722 47.3971 20.5827 47.3971V45.3971ZM33.2662 32.7105C33.2662 39.7167 27.5881 45.3971 20.5827 45.3971V47.3971C28.6932 47.3971 35.2662 40.8207 35.2662 32.7105H33.2662ZM33.2163 31.5761C33.2493 31.9496 33.2662 32.3279 33.2662 32.7105H35.2662C35.2662 32.269 35.2467 31.8318 35.2085 31.3997L33.2163 31.5761ZM35.1543 31.1521L33.8786 27.5735L31.9947 28.245L33.2704 31.8237L35.1543 31.1521ZM32.9367 26.9092H27.1903V28.9092H32.9367V26.9092ZM29.7488 32.7105C29.7488 30.6977 29.0994 28.8339 27.999 27.321L26.3815 28.4975C27.2416 29.6799 27.7488 31.1344 27.7488 32.7105H29.7488ZM20.5827 41.8797C25.6445 41.8797 29.7488 37.775 29.7488 32.7105H27.7488C27.7488 36.6709 24.5394 39.8797 20.5827 39.8797V41.8797ZM11.4166 32.7105C11.4166 37.775 15.5209 41.8797 20.5827 41.8797V39.8797C16.626 39.8797 13.4166 36.6709 13.4166 32.7105H11.4166ZM18.1818 23.8594C14.285 24.9149 11.4166 28.476 11.4166 32.7105H13.4166C13.4166 29.4017 15.6577 26.6151 18.7047 25.7898L18.1818 23.8594ZM19.4357 24.7019C19.3756 24.2158 19.3831 23.6289 19.4684 22.9301L17.4832 22.6878C17.3843 23.4975 17.3652 24.2551 17.4508 24.9473L19.4357 24.7019ZM19.4736 22.742L19.2331 19.1575L17.2375 19.2914L17.478 22.8759L19.4736 22.742Z" fill="black"/>
<path d="M18.1194 16.7827H29.544C30.7857 16.7827 31.7924 17.7894 31.7924 19.0311C31.7924 20.2729 30.7857 21.2795 29.544 21.2795H18.1194V16.7827Z" fill="#FF983E" stroke="black" stroke-width="2"/>
<path fill-rule="evenodd" clip-rule="evenodd" d="M17.5645 11.4064L22.6644 12.0289L21.0713 25.0794H32.6028C33.861 25.0794 34.9856 25.8646 35.4191 27.0458L39.2907 37.5942L40.9665 37.0565C42.3174 36.623 43.764 37.3668 44.1974 38.7177C44.6309 40.0686 43.8872 41.5151 42.5363 41.9486L37.5857 43.5371C36.7925 43.7917 35.9396 43.3752 35.6526 42.5931L31.1102 30.2172H18.6568C16.8558 30.2172 15.4607 28.6414 15.6789 26.8537L17.5645 11.4064Z" fill="#FF983E" stroke="black" stroke-width="2" stroke-linejoin="round"/>
<ellipse cx="20.8858" cy="7.01589" rx="5.20777" ry="5.20925" fill="#FF983E" stroke="black" stroke-width="2" stroke-linecap="round" stroke-linejoin="round"/>
</svg>
