<svg width="48" height="48" viewBox="0 0 48 48" fill="none" xmlns="http://www.w3.org/2000/svg">
<ellipse cx="34.5714" cy="16.1272" rx="6.30822" ry="6.60661" fill="#FF983E" stroke="black" stroke-width="2" stroke-linecap="round" stroke-linejoin="round"/>
<path d="M46.2644 33.6521C43.6653 29.5453 39.3966 26.8665 34.5712 26.8665C29.7458 26.8665 25.477 29.5454 22.8779 33.6522C22.8779 33.6522 24.4722 38.9831 34.5712 38.9831C44.6702 38.9831 46.2644 33.6521 46.2644 33.6521Z" fill="#FF983E" stroke="black" stroke-width="2" stroke-linecap="round" stroke-linejoin="round"/>
<ellipse cx="13.4298" cy="16.1272" rx="6.30822" ry="6.60661" fill="#FF983E" stroke="black" stroke-width="2" stroke-linecap="round" stroke-linejoin="round"/>
<path d="M25.1226 33.6521C22.5235 29.5453 18.2548 26.8665 13.4293 26.8665C8.60393 26.8665 4.33517 29.5454 1.73608 33.6522C1.73608 33.6522 3.33031 38.9831 13.4293 38.9831C23.5284 38.9831 25.1226 33.6521 25.1226 33.6521Z" fill="#FF983E" stroke="black" stroke-width="2" stroke-linecap="round" stroke-linejoin="round"/>
<ellipse cx="24.0005" cy="14.2537" rx="8.5918" ry="8.9982" fill="#FF983E" stroke="black" stroke-width="2" stroke-linecap="round" stroke-linejoin="round"/>
<path d="M39.9262 38.122C36.3862 32.5285 30.5722 28.8799 24 28.8799C17.4277 28.8799 11.6137 32.5286 8.07373 38.122C8.07373 38.122 10.2451 44.7448 23.9999 44.7448C37.7548 44.7448 39.9262 38.122 39.9262 38.122Z" fill="#FF983E" stroke="black" stroke-width="2" stroke-linecap="round" stroke-linejoin="round"/>
</svg>
