<svg width="48" height="48" viewBox="0 0 48 48" fill="none" xmlns="http://www.w3.org/2000/svg">
<path fill-rule="evenodd" clip-rule="evenodd" d="M13.5242 8.46645L33.8318 8.46191C37.1914 8.46191 38.4097 8.80319 39.638 9.44404C40.8662 10.0849 41.8301 11.0253 42.487 12.2236C43.1439 13.4219 43.4937 14.6105 43.4937 17.8882V31.4603C43.4937 32.4591 43.4 33.3455 43.1946 34.1621C42.9893 34.9787 42.6723 35.7253 42.2257 36.4444C41.779 37.1634 41.2028 37.8549 40.4789 38.5611C39.755 39.2673 39.0463 39.8295 38.3092 40.2653C37.5722 40.701 36.8069 41.0103 35.9699 41.2106C35.133 41.4109 34.2243 41.5023 33.2006 41.5023H14.1683C10.8086 41.5023 9.59031 41.1611 8.36207 40.5202C7.13383 39.8794 6.1699 38.9389 5.51303 37.7407C4.89995 36.6223 4.55435 35.5123 4.511 32.7044L4.50635 17.8882C4.50635 14.6105 4.85616 13.4219 5.51303 12.2236C6.1699 11.0253 7.13383 10.0849 8.36207 9.44404L8.85793 9.20378C9.869 8.7556 11.0573 8.50271 13.5242 8.46645Z" fill="#FF983E"/>
<path d="M4.50635 17.4629H43.1195" stroke="black" stroke-width="2"/>
<path d="M16.7061 6.20264V10.7209" stroke="black" stroke-width="2" stroke-linecap="round"/>
<path d="M30.9194 6.20264V10.7209" stroke="black" stroke-width="2" stroke-linecap="round"/>
<path d="M22.0483 24.6338C22.425 23.5588 23.6024 23.0167 24.6597 23.3691C25.2579 23.5686 25.7386 24.0312 25.9497 24.6338L26.3696 25.832L27.6851 25.8525C28.8017 25.8693 29.7352 26.773 29.7173 27.9219C29.7073 28.5623 29.3938 29.154 28.8823 29.5283L27.8511 30.2822L28.228 31.4746C28.575 32.573 27.9357 33.7075 26.8589 34.0312C26.2562 34.2124 25.6003 34.1123 25.0796 33.7549L23.9985 33.0127L22.9194 33.7549C21.9972 34.3879 20.7194 34.1794 20.0591 33.2637C19.6864 32.7466 19.5772 32.0849 19.77 31.4746L20.146 30.2822L19.1157 29.5283C18.1979 28.8567 18.0018 27.5674 18.7007 26.6582C19.0877 26.1547 19.6851 25.8619 20.314 25.8525L21.6284 25.832L22.0483 24.6338Z" fill="white" stroke="black" stroke-width="2"/>
<path opacity="0.7" d="M37.4816 40.6905L33.2441 41.7975V35.7278L37.8633 31.2998H43.0932L42.7878 35.9952L37.4816 40.6905Z" fill="white"/>
<path d="M33.2627 41.5023V39.0625C33.2627 36.4403 33.5425 35.4895 34.068 34.5308C34.5935 33.5722 35.3647 32.8199 36.3473 32.3072C37.3299 31.7945 38.3045 31.5215 40.9922 31.5215H43.4931" stroke="black" stroke-width="2"/>
<path fill-rule="evenodd" clip-rule="evenodd" d="M13.5242 8.46645L33.8318 8.46191C37.1914 8.46191 38.4097 8.80319 39.638 9.44404C40.8662 10.0849 41.8301 11.0253 42.487 12.2236C43.1439 13.4219 43.4937 14.6105 43.4937 17.8882V31.4603C43.4937 32.4591 43.4 33.3455 43.1946 34.1621C42.9893 34.9787 42.6723 35.7253 42.2257 36.4444C41.779 37.1634 41.2028 37.8549 40.4789 38.5611C39.755 39.2673 39.0463 39.8295 38.3092 40.2653C37.5722 40.701 36.8069 41.0103 35.9699 41.2106C35.133 41.4109 34.2243 41.5023 33.2006 41.5023H14.1683C10.8086 41.5023 9.59031 41.1611 8.36207 40.5202C7.13383 39.8794 6.1699 38.9389 5.51303 37.7407C4.89995 36.6223 4.55435 35.5123 4.511 32.7044L4.50635 17.8882C4.50635 14.6105 4.85616 13.4219 5.51303 12.2236C6.1699 11.0253 7.13383 10.0849 8.36207 9.44404L8.85793 9.20378C9.869 8.7556 11.0573 8.50271 13.5242 8.46645Z" stroke="black" stroke-width="2"/>
</svg>
