<svg width="16" height="16" viewBox="0 0 16 16" fill="none" xmlns="http://www.w3.org/2000/svg">
<g clip-path="url(#clip0_194_8469)">
<path d="M3.70839 9H5.55608C6.29133 9 6.88736 9.59603 6.88736 10.3313V10.3313C6.88736 11.0665 6.29133 11.6626 5.55608 11.6626H3.70839C2.72806 11.6626 1.93335 12.4573 1.93335 13.4376V13.4376C1.93335 14.4179 2.72806 15.2126 3.70839 15.2126H11.5481" stroke="black" stroke-width="1.22489" stroke-linecap="round"/>
<path d="M8.5896 7.65681C8.5896 10.6334 11.5819 12.9748 11.5819 12.9748C11.5819 12.9748 14.5741 10.6334 14.5741 7.65681C14.5741 6.00428 13.2343 4.66467 11.5819 4.66467C9.92937 4.66467 8.5896 6.00428 8.5896 7.65681Z" stroke="black" stroke-width="1.22489" stroke-linejoin="round"/>
<circle cx="11.582" cy="7.46538" r="0.840258" fill="black"/>
<path d="M1.47144 3.02446C1.47144 5.24979 3.7085 7.00026 3.7085 7.00026C3.7085 7.00026 5.94556 5.24979 5.94556 3.02446C5.94556 1.78899 4.94392 0.787476 3.7085 0.787476C2.47308 0.787476 1.47144 1.78899 1.47144 3.02446Z" stroke="black" stroke-width="1.22489" stroke-linejoin="round"/>
<circle cx="3.70852" cy="2.88124" r="0.628193" fill="black"/>
</g>
<defs>
<clipPath id="clip0_194_8469">
<rect width="16" height="16" fill="white"/>
</clipPath>
</defs>
</svg>
