<svg width="15" height="10" viewBox="0 0 15 10" fill="none" xmlns="http://www.w3.org/2000/svg">
<path d="M7.67325 9.35079C7.35356 9.35079 7.06097 9.22075 6.79546 8.96066L0.675308 2.70234C0.572357 2.59397 0.493789 2.47747 0.439604 2.35285C0.390838 2.22822 0.366455 2.09005 0.366455 1.93833C0.366455 1.73785 0.415221 1.55362 0.512754 1.38565C0.610286 1.21768 0.740329 1.08493 0.902883 0.987393C1.07086 0.889861 1.25508 0.841095 1.45557 0.841095C1.759 0.841095 2.0245 0.952173 2.25208 1.17433L8.04713 7.1238H7.30751L13.0863 1.17433C13.3139 0.952173 13.5794 0.841095 13.8828 0.841095C14.0833 0.841095 14.2648 0.889861 14.4274 0.987393C14.5953 1.08493 14.7281 1.21768 14.8256 1.38565C14.9232 1.55362 14.9719 1.73785 14.9719 1.93833C14.9719 2.23635 14.8663 2.48831 14.6549 2.69421L8.55104 8.96066C8.421 9.09071 8.28283 9.18824 8.13653 9.25326C7.99565 9.31286 7.84123 9.34537 7.67325 9.35079Z" fill="black"/>
</svg>
