<svg width="17" height="16" viewBox="0 0 17 16" fill="none" xmlns="http://www.w3.org/2000/svg">
<g clip-path="url(#clip0_65_1701)">
<path fill-rule="evenodd" clip-rule="evenodd" d="M4.20979 3.68897L6.55718 1.85502C7.39571 1.1999 7.75394 1.03055 8.18023 0.919133C8.60652 0.807717 9.03242 0.807717 9.45871 0.919133C9.885 1.03055 10.2432 1.1999 11.0818 1.85502L13.4291 3.68897C14.364 4.41931 14.6601 4.71972 14.9446 5.10139C15.2292 5.48306 15.4259 5.88638 15.5515 6.3456C15.677 6.80481 15.7315 7.22308 15.7315 8.40937V11.6202C15.7315 12.8526 15.6031 13.2995 15.3622 13.7501C15.1212 14.2007 14.7676 14.5543 14.3171 14.7952C13.8665 15.0362 13.4196 15.1645 12.1872 15.1645H5.45179C4.21935 15.1645 3.77244 15.0362 3.32188 14.7952C2.87132 14.5543 2.51772 14.2007 2.27675 13.7501C2.03579 13.2995 1.90747 12.8526 1.90747 11.6202L1.90747 8.40937C1.90747 7.22308 1.96191 6.80481 2.08748 6.3456C2.21306 5.88638 2.40977 5.48306 2.69433 5.10139C2.97888 4.71972 3.27497 4.41931 4.20979 3.68897Z" stroke="black" stroke-width="1.5"/>
<path d="M6.78589 11.0703C6.78589 9.94727 7.69629 9.03687 8.81933 9.03687C9.94236 9.03687 10.8528 9.94727 10.8528 11.0703V15.1645H6.78589V11.0703Z" fill="black"/>
</g>
<defs>
<clipPath id="clip0_65_1701">
<rect width="16" height="16" fill="white" transform="translate(0.819824)"/>
</clipPath>
</defs>
</svg>
