<svg width="48" height="48" viewBox="0 0 48 48" fill="none" xmlns="http://www.w3.org/2000/svg">
<g clip-path="url(#clip0_424_14383)">
<path d="M8.85645 17.8359H39.1437V28.3746C39.1437 29.5766 39.1437 30.1776 38.9362 30.8753C38.7855 31.3822 38.3789 32.1596 38.0485 32.5727C37.5939 33.1411 37.2538 33.3773 36.5736 33.8498C29.2541 38.9338 18.7461 38.9338 11.4266 33.8498C10.7464 33.3773 10.4063 33.1411 9.95166 32.5727C9.62134 32.1596 9.21474 31.3822 9.06396 30.8753C8.85645 30.1776 8.85645 29.5766 8.85645 28.3746V17.8359Z" fill="#FF983E" stroke="black" stroke-width="2" stroke-linejoin="round"/>
<path d="M9.3323 21.4598C5.95974 20.0687 4.27346 19.3732 3.76972 18.386C3.33267 17.5295 3.33266 16.5154 3.76972 15.6589C4.27346 14.6717 5.95974 13.9762 9.33229 12.5851L17.8992 9.05152C20.151 8.1227 21.277 7.65829 22.4416 7.47454C23.4742 7.31163 24.5259 7.31163 25.5585 7.47454C26.7232 7.65829 27.8491 8.12269 30.101 9.05151L38.6678 12.5851C42.0404 13.9761 43.7266 14.6717 44.2304 15.6588C44.6674 16.5154 44.6674 17.5295 44.2304 18.386C43.7266 19.3732 42.0404 20.0687 38.6678 21.4598L30.1009 24.9933C27.8491 25.9222 26.7231 26.3866 25.5585 26.5703C24.5259 26.7332 23.4742 26.7332 22.4416 26.5703C21.277 26.3866 20.151 25.9222 17.8992 24.9934L9.3323 21.4598Z" fill="#FF983E" stroke="black" stroke-width="2"/>
<ellipse cx="24.0002" cy="17.0223" rx="3.45825" ry="1.77234" fill="black"/>
<path d="M23.8837 17.0225L11.9937 22.2016V39.8418" stroke="black" stroke-width="2" stroke-linecap="round"/>
</g>
<defs>
<clipPath id="clip0_424_14383">
<rect width="48" height="48" fill="white"/>
</clipPath>
</defs>
</svg>
