<svg width="165" height="28" viewBox="0 0 165 28" fill="none" xmlns="http://www.w3.org/2000/svg">
<path d="M51.0399 22.2227C49.2632 22.2227 47.7465 21.928 46.4897 21.3387C45.233 20.7493 44.2753 19.8913 43.6167 18.7646C42.958 17.6379 42.6286 16.2729 42.6286 14.6695V3.15112H47.3218V14.5655C47.3218 15.7615 47.6381 16.6715 48.2708 17.2956C48.9035 17.9196 49.8265 18.2316 51.0399 18.2316C52.2619 18.2316 53.1893 17.9109 53.822 17.2696C54.4547 16.6195 54.771 15.6228 54.771 14.2795V3.15112H59.4642V14.6695C59.4642 16.2729 59.1348 17.6379 58.4761 18.7646C57.8174 19.8913 56.8597 20.7493 55.603 21.3387C54.355 21.928 52.8339 22.2227 51.0399 22.2227Z" fill="#0FA9A7"/>
<path d="M19.832 21.8717L19.832 3.15112H27.4372L30.6093 18.7516H30.1673L33.3524 3.15112H40.9577V21.8717H36.3815L36.6155 6.45323H36.6545L33.3134 21.8717H27.4762L24.1351 6.45323H24.1741L24.4082 21.8717H19.832Z" fill="#0FA9A7"/>
<path d="M9.54199 22.2228C7.64393 22.2228 5.99722 21.8241 4.60184 21.0267C3.21513 20.2294 2.14043 19.1027 1.37774 17.6466C0.623716 16.1819 0.246704 14.4659 0.246704 12.4985C0.246704 10.5311 0.619382 8.82369 1.36474 7.37631C2.11876 5.92027 3.18913 4.79357 4.57584 3.99621C5.97122 3.19885 7.6266 2.80017 9.54199 2.80017C11.7694 2.80017 13.6415 3.35485 15.1582 4.46422C16.6835 5.56492 17.6846 7.12931 18.1613 9.15737L13.4291 10.2494C13.2211 9.11403 12.7748 8.25601 12.0901 7.67532C11.4054 7.08597 10.5517 6.7913 9.52899 6.7913C8.59296 6.7913 7.79561 7.02097 7.13692 7.48032C6.4869 7.93966 5.99288 8.59835 5.65487 9.45638C5.31686 10.3057 5.14786 11.3241 5.14786 12.5115C5.14786 13.6988 5.31686 14.7259 5.65487 15.5926C6.00155 16.4506 6.4999 17.1093 7.14992 17.5686C7.79994 18.0193 8.5843 18.2447 9.50299 18.2447C10.4824 18.2447 11.297 17.976 11.9471 17.4386C12.5971 16.8926 13.0564 16.1169 13.3251 15.1116L18.1483 16.0346C17.6456 17.9933 16.6359 19.5144 15.1192 20.5977C13.6111 21.6811 11.7521 22.2228 9.54199 22.2228Z" fill="#0FA9A7"/>
<path d="M135.337 21.8718V7.83136H139.77V11.0945L139.666 10.5094C140.117 9.53874 140.724 8.79339 141.486 8.27337C142.258 7.74469 143.189 7.48035 144.281 7.48035C145.408 7.48035 146.314 7.74035 146.999 8.26037C147.692 8.77172 148.195 9.47808 148.507 10.3794C148.819 11.2721 148.975 12.2905 148.975 13.4345V21.8718H144.425V13.7075C144.425 12.7715 144.286 12.0608 144.008 11.5755C143.74 11.0901 143.254 10.8475 142.552 10.8475C141.677 10.8475 141.014 11.2505 140.563 12.0565C140.121 12.8538 139.9 14.1019 139.9 15.8006V21.8718H135.337Z" fill="#FF983E"/>
<path d="M129.131 21.8717V7.8313H133.694V21.8717H129.131Z" fill="#FF983E"/>
<path d="M120.975 22.2228C119.9 22.2228 118.869 22.0755 117.881 21.7808C116.901 21.4861 116.074 21.0181 115.398 20.3767C114.722 19.7354 114.297 18.8947 114.124 17.8547L118.167 17.0486C118.236 17.716 118.479 18.223 118.895 18.5697C119.311 18.9164 119.939 19.0897 120.78 19.0897C121.586 19.0897 122.167 18.951 122.522 18.6737C122.877 18.3964 123.055 18.0757 123.055 17.7117C123.055 17.391 122.908 17.0963 122.613 16.8276C122.318 16.5503 121.777 16.3553 120.988 16.2426L119.87 16.0866C119.358 16.0173 118.804 15.9176 118.206 15.7876C117.608 15.6576 117.04 15.4583 116.503 15.1896C115.965 14.9122 115.528 14.5266 115.19 14.0326C114.852 13.5385 114.683 12.8928 114.683 12.0955C114.683 11.1595 114.934 10.3491 115.437 9.66441C115.939 8.97106 116.65 8.43371 117.569 8.05236C118.487 7.67102 119.562 7.48035 120.793 7.48035C121.859 7.48035 122.847 7.63202 123.757 7.93536C124.676 8.2387 125.447 8.69372 126.071 9.3004C126.704 9.89842 127.111 10.6481 127.293 11.5495L123.302 12.3685C123.241 12.0825 123.137 11.8008 122.99 11.5235C122.843 11.2375 122.609 11.0035 122.288 10.8215C121.976 10.6308 121.538 10.5354 120.975 10.5354C120.368 10.5354 119.905 10.6524 119.584 10.8865C119.263 11.1118 119.103 11.4021 119.103 11.7575C119.103 12.0608 119.22 12.3078 119.454 12.4985C119.688 12.6805 119.996 12.8278 120.377 12.9405C120.758 13.0445 121.17 13.1312 121.612 13.2005L122.964 13.3955C123.709 13.4995 124.429 13.7032 125.122 14.0065C125.815 14.3099 126.383 14.7476 126.825 15.3196C127.276 15.8916 127.501 16.6413 127.501 17.5687C127.501 18.5914 127.215 19.4494 126.643 20.1427C126.071 20.8361 125.291 21.3561 124.303 21.7028C123.315 22.0495 122.206 22.2228 120.975 22.2228Z" fill="#FF983E"/>
<path d="M104.121 22.2227C103.012 22.2227 102.111 21.9671 101.417 21.4557C100.724 20.9357 100.217 20.2294 99.8963 19.3367C99.5843 18.4353 99.4283 17.4126 99.4283 16.2686V7.8313H103.991V15.7095C103.991 16.8276 104.178 17.6336 104.55 18.1276C104.923 18.613 105.456 18.8556 106.149 18.8556C106.496 18.8556 106.851 18.7646 107.215 18.5826C107.58 18.392 107.887 18.054 108.139 17.5686C108.39 17.0746 108.516 16.3682 108.516 15.4495V7.8313H113.066V21.8717H108.646V18.5826L108.75 19.1677C108.299 20.1557 107.688 20.914 106.916 21.4427C106.154 21.9627 105.222 22.2227 104.121 22.2227Z" fill="#FF983E"/>
<path d="M90.986 22.2228C89.53 22.2228 88.2473 21.9108 87.1379 21.2868C86.0285 20.6628 85.1618 19.7961 84.5378 18.6867C83.9225 17.5773 83.6148 16.299 83.6148 14.8516C83.6148 13.3955 83.9225 12.1172 84.5378 11.0165C85.1618 9.90709 86.0285 9.0404 87.1379 8.41638C88.2473 7.79236 89.53 7.48035 90.986 7.48035C92.442 7.48035 93.7248 7.79236 94.8341 8.41638C95.9435 9.0404 96.8102 9.90709 97.4342 11.0165C98.0582 12.1172 98.3702 13.3955 98.3702 14.8516C98.3702 16.3076 98.0582 17.5903 97.4342 18.6997C96.8102 19.8004 95.9392 20.6628 94.8211 21.2868C93.7118 21.9108 92.4334 22.2228 90.986 22.2228ZM90.999 18.9597C91.8137 18.9597 92.4594 18.5914 92.9361 17.8547C93.4128 17.118 93.6511 16.1169 93.6511 14.8516C93.6511 13.5862 93.4128 12.5852 92.9361 11.8485C92.4594 11.1118 91.8094 10.7434 90.986 10.7434C90.1713 10.7434 89.5256 11.1118 89.0489 11.8485C88.5723 12.5852 88.3339 13.5862 88.3339 14.8516C88.3339 16.1169 88.5723 17.118 89.0489 17.8547C89.5256 18.5914 90.1756 18.9597 90.999 18.9597Z" fill="#FF983E"/>
<path d="M65.6047 21.8717V3.15112H70.2978V10.6004H77.8641V3.15112H82.5572V21.8717H77.8641V14.5915H70.2978V21.8717H65.6047Z" fill="#FF983E"/>
<circle cx="131.419" cy="3.40915" r="2.64987" fill="#FF983E"/>
<path d="M160.292 7.83374V10.6237C159.782 9.65374 159.152 8.94374 158.422 8.50374C157.652 8.05374 156.782 7.83374 155.792 7.83374C154.622 7.83374 153.612 8.12374 152.772 8.68374C151.932 9.25374 151.282 10.0737 150.832 11.1537C150.382 12.2337 150.162 13.5437 150.162 15.0737C150.162 16.6037 150.392 17.8837 150.842 18.9537C151.292 20.0237 151.952 20.8437 152.802 21.4037C153.652 21.9637 154.682 22.2437 155.882 22.2437C156.942 22.2437 157.852 22.0037 158.602 21.5237C159.182 21.1637 159.682 20.6237 160.122 19.9237V21.0837C160.122 23.7737 159.592 24.4937 156.712 24.4937H153.222V27.6437H157.362C159.982 27.6437 161.862 27.4937 162.952 26.6937C164.342 25.6737 164.532 23.6737 164.532 20.4737V7.83374H160.302H160.292ZM159.502 17.9437C158.972 18.6137 158.322 18.9437 157.532 18.9437C156.702 18.9437 156.052 18.5937 155.572 17.8837C155.092 17.1737 154.852 16.2037 154.852 14.9737C154.852 13.7437 155.082 12.8137 155.552 12.1437C156.022 11.4737 156.672 11.1237 157.512 11.1237C158.052 11.1237 158.522 11.2737 158.942 11.5637C159.362 11.8537 159.692 12.2937 159.932 12.8637C160.172 13.4337 160.292 14.1637 160.292 15.0237C160.292 16.3037 160.032 17.2737 159.502 17.9437Z" fill="#FF983E"/>
</svg>
