<svg width="16" height="17" viewBox="0 0 16 17" fill="none" xmlns="http://www.w3.org/2000/svg">
<g clip-path="url(#clip0_329_22583)">
<path fill-rule="evenodd" clip-rule="evenodd" d="M13.1689 2.94837L13.1691 2.94837C13.2478 2.97884 13.3101 3.04111 13.3406 3.11983L13.3406 3.12005C13.3403 3.1357 13.3392 3.21597 13.282 3.41618C13.2042 3.68796 13.0642 4.05286 12.8536 4.59893L9.70302 12.7668C9.48119 13.3419 9.33136 13.7285 9.19949 13.9969C9.10314 14.193 9.04698 14.258 9.03505 14.2718L9.03438 14.2726C8.9577 14.3092 8.86901 14.3116 8.79047 14.2791L8.78976 14.2784C8.77711 14.2652 8.71755 14.2034 8.61083 14.0127C8.46478 13.7517 8.29447 13.3737 8.04217 12.8113L7.15307 10.8295L7.12902 10.7758C7.06514 10.6332 7.00687 10.5031 6.94562 10.3828L10.8036 6.52484C11.0769 6.25147 11.0769 5.80826 10.8036 5.53489C10.5302 5.26152 10.087 5.26152 9.81362 5.53489L5.97122 9.37729C5.83303 9.3032 5.68181 9.23548 5.51309 9.15991L5.51307 9.1599L5.45941 9.13586L3.47759 8.24676C2.9152 7.99445 2.53721 7.82414 2.27624 7.67809C2.08555 7.57137 2.02368 7.51181 2.01054 7.49916L2.00981 7.49845C1.97733 7.41992 1.97971 7.33123 2.01634 7.25454L2.01711 7.25388C2.03091 7.24195 2.09588 7.18579 2.29201 7.08943C2.56043 6.95756 2.947 6.80774 3.52209 6.58591L11.69 3.43534C12.2361 3.22471 12.601 3.08469 12.8727 3.00695C13.073 2.94968 13.1532 2.94858 13.1689 2.94837ZM14.6723 2.68695C14.5029 2.18223 14.1067 1.78607 13.602 1.61658C13.2156 1.48681 12.817 1.56675 12.4877 1.66093C12.148 1.7581 11.7239 1.9217 11.2178 2.11693L11.2178 2.11693L2.98642 5.29199C2.45136 5.49836 2.00579 5.67022 1.6747 5.83288C1.35738 5.98877 0.992967 6.20424 0.792832 6.57309C0.533819 7.05046 0.518482 7.62286 0.751563 8.11341C0.93166 8.49245 1.28401 8.72713 1.59253 8.89979C1.91443 9.07994 2.35016 9.2754 2.8734 9.51013L4.88636 10.4132C5.25676 10.5794 5.3445 10.623 5.41518 10.6756C5.49051 10.7317 5.55727 10.7984 5.61335 10.8737C5.66597 10.9444 5.70955 11.0322 5.87572 11.4026L6.77878 13.4155L6.7788 13.4155C7.01352 13.9388 7.20899 14.3745 7.38914 14.6964C7.5618 15.0049 7.79648 15.3573 8.17552 15.5374C8.66607 15.7704 9.23846 15.7551 9.71583 15.4961C10.0847 15.296 10.3002 14.9315 10.456 14.6142C10.6187 14.2831 10.7906 13.8376 10.9969 13.3025L14.172 5.07113C14.3672 4.56503 14.5308 4.1409 14.628 3.8012C14.7222 3.47192 14.8021 3.07337 14.6723 2.68695Z" fill="black"/>
</g>
<defs>
<clipPath id="clip0_329_22583">
<rect width="16" height="16" fill="white" transform="translate(0 0.600098)"/>
</clipPath>
</defs>
</svg>
