<svg width="49" height="48" viewBox="0 0 49 48" fill="none" xmlns="http://www.w3.org/2000/svg">
<g clip-path="url(#clip0_230_10892)">
<path d="M30.9913 14.5635C31.4478 12.1826 34.8561 12.1825 35.3126 14.5635L35.7296 16.7393C36.5006 20.7613 39.6461 23.9068 43.6681 24.6778L45.8439 25.0948C48.2248 25.5513 48.2249 28.9596 45.8439 29.4161L43.6681 29.8331C39.6461 30.6041 36.5006 33.7495 35.7296 37.7715L35.3126 39.9473C34.8561 42.3283 31.4478 42.3283 30.9913 39.9473L30.5743 37.7715C29.8033 33.7495 26.6579 30.6041 22.6359 29.8331L20.4601 29.4161C18.0791 28.9596 18.0791 25.5513 20.4601 25.0948L22.6359 24.6778C26.6579 23.9068 29.8033 20.7613 30.5743 16.7393L30.9913 14.5635Z" fill="#FF983E" stroke="black" stroke-width="2"/>
<path d="M10.1544 7.02826C10.5693 4.86353 13.6683 4.86355 14.0831 7.02826L14.3683 8.51947C14.831 10.9327 16.7187 12.8196 19.132 13.2822L20.6232 13.5683C22.7877 13.9833 22.7878 17.0821 20.6232 17.497L19.132 17.7822C16.7185 18.2447 14.8308 20.1324 14.3683 22.5458L14.0831 24.037C13.6682 26.2016 10.5694 26.2016 10.1544 24.037L9.86829 22.5458C9.40576 20.1326 7.51882 18.2448 5.10559 17.7822L3.61438 17.497C1.44965 17.0821 1.44967 13.9832 3.61438 13.5683L5.10559 13.2822C7.51862 12.8195 9.40562 10.9325 9.86829 8.51947L10.1544 7.02826Z" fill="#FF983E" stroke="black" stroke-width="2"/>
</g>
<defs>
<clipPath id="clip0_230_10892">
<rect width="48" height="48" fill="white" transform="translate(0.829712)"/>
</clipPath>
</defs>
</svg>
