<svg width="48" height="49" viewBox="0 0 48 49" fill="none" xmlns="http://www.w3.org/2000/svg">
<rect x="5.74292" y="4.49072" width="36.5139" height="39.0735" rx="5.92493" fill="#FF983E"/>
<path d="M19.4356 42.5643H14.8714V42.5643C11.8842 42.5643 10.3906 42.5643 9.22673 42.038C7.91412 41.4445 6.8627 40.3931 6.26917 39.0805C5.74292 37.9166 5.74292 36.423 5.74292 33.4358V13.9706C5.74292 10.6523 5.74292 8.9932 6.3887 7.72579C6.95674 6.61094 7.86314 5.70454 8.97799 5.1365C10.2454 4.49072 11.9045 4.49072 15.2228 4.49072H32.7769C36.0952 4.49072 37.7544 4.49072 39.0218 5.1365C40.1366 5.70454 41.043 6.61094 41.6111 7.72579C42.2568 8.9932 42.2568 10.6523 42.2568 13.9706V33.4358C42.2568 36.423 42.2568 37.9166 41.7306 39.0805C41.1371 40.3931 40.0856 41.4445 38.773 42.038C37.6092 42.5643 36.1156 42.5643 33.1284 42.5643V42.5643H28.5641" stroke="black" stroke-width="2" stroke-linecap="round"/>
<rect x="28.498" y="9.08789" width="9.75908" height="16.8659" rx="1.56" fill="white"/>
<rect x="28.6257" y="13.7253" width="9.2989" height="12.1313" rx="1.2" fill="white"/>
<rect x="28.498" y="9.08789" width="9.75908" height="16.8659" rx="1.56" stroke="black" stroke-width="1.2"/>
<path d="M38.2569 13.2175L31.5196 16.0553C30.9736 16.2853 30.3414 16.0823 30.0313 15.5775L28.5855 13.2243L38.2569 13.2175Z" fill="black" style="mix-blend-mode:overlay"/>
<path d="M38.2569 13.2175L31.5196 16.0553C30.9736 16.2853 30.3414 16.0823 30.0313 15.5775L28.5855 13.2243L38.2569 13.2175Z" stroke="black" stroke-width="1.2" stroke-linejoin="round"/>
<rect x="10.0376" y="9.08789" width="9.75908" height="16.8659" rx="1.56" fill="white"/>
<rect x="10.1655" y="13.7253" width="9.2989" height="12.1313" rx="1.2" fill="white"/>
<rect x="10.0376" y="9.08789" width="9.75908" height="16.8659" rx="1.56" stroke="black" stroke-width="1.2"/>
<path d="M19.7967 13.2175L13.0594 16.0553C12.5134 16.2853 11.8812 16.0823 11.5711 15.5775L10.1253 13.2243L19.7967 13.2175Z" fill="black" style="mix-blend-mode:overlay"/>
<path d="M19.7967 13.2175L13.0594 16.0553C12.5134 16.2853 11.8812 16.0823 11.5711 15.5775L10.1253 13.2243L19.7967 13.2175Z" stroke="black" stroke-width="1.2" stroke-linejoin="round"/>
</svg>
