<svg width="48" height="49" viewBox="0 0 48 49" fill="none" xmlns="http://www.w3.org/2000/svg">
<path d="M1.24316 13.4705C1.24316 10.1522 1.24316 8.49308 1.88894 7.22567C2.45699 6.11082 3.36339 5.20442 4.47823 4.63638C5.74565 3.9906 7.40478 3.9906 10.7231 3.9906H37.2772C40.5955 3.9906 42.2546 3.9906 43.522 4.63638C44.6369 5.20442 45.5433 6.11082 46.1113 7.22567C46.7571 8.49308 46.7571 10.1522 46.7571 13.4705V33.5842C46.7571 36.9025 46.7571 38.5617 46.1113 39.8291C45.5433 40.9439 44.6369 41.8503 43.522 42.4184C42.2546 43.0641 40.5955 43.0641 37.2772 43.0641H10.7231C7.40478 43.0641 5.74565 43.0641 4.47823 42.4184C3.36339 41.8503 2.45699 40.9439 1.88894 39.8291C1.24316 38.5617 1.24316 36.9025 1.24316 33.5843V13.4705Z" fill="#FF983E"/>
<path d="M27.9359 44.0641H10.3716V44.0641C7.38442 44.0641 5.89081 44.0641 4.72698 43.5379C3.41436 42.9444 2.36294 41.893 1.76941 40.5803C1.24316 39.4165 1.24316 37.9229 1.24316 34.9357V13.4705C1.24316 10.1522 1.24316 8.49308 1.88894 7.22567C2.45699 6.11082 3.36339 5.20442 4.47823 4.63638C5.74565 3.9906 7.40478 3.9906 10.7231 3.9906H37.2772C40.5955 3.9906 42.2546 3.9906 43.522 4.63638C44.6369 5.20442 45.5433 6.11082 46.1113 7.22567C46.7571 8.49308 46.7571 10.1522 46.7571 13.4705V34.9357C46.7571 37.9229 46.7571 39.4165 46.2308 40.5803C45.6373 41.893 44.5859 42.9444 43.2733 43.5379C42.1094 44.0641 40.6158 44.0641 37.6286 44.0641V44.0641H36.0644" stroke="black" stroke-width="2" stroke-linecap="round"/>
<rect x="32.998" y="8.58777" width="9.75908" height="16.8659" rx="1.56" fill="white"/>
<rect x="33.126" y="13.2252" width="9.2989" height="12.1313" rx="1.2" fill="white"/>
<rect x="32.998" y="8.58777" width="9.75908" height="16.8659" rx="1.56" stroke="black" stroke-width="1.2"/>
<path d="M42.7572 12.7174L36.0198 15.5552C35.4738 15.7851 34.8417 15.5822 34.5316 15.0774L33.0858 12.7242L42.7572 12.7174Z" fill="black" style="mix-blend-mode:overlay"/>
<path d="M42.7572 12.7174L36.0198 15.5552C35.4738 15.7851 34.8417 15.5822 34.5316 15.0774L33.0858 12.7242L42.7572 12.7174Z" stroke="black" stroke-width="1.2" stroke-linejoin="round"/>
<rect x="5.74561" y="8.58777" width="9.75908" height="16.8659" rx="1.56" fill="white"/>
<rect x="5.87354" y="13.2252" width="9.2989" height="12.1313" rx="1.2" fill="white"/>
<rect x="5.74561" y="8.58777" width="9.75908" height="16.8659" rx="1.56" stroke="black" stroke-width="1.2"/>
<path d="M15.5047 12.7174L8.76737 15.5552C8.22137 15.7851 7.58924 15.5822 7.27911 15.0774L5.83335 12.7242L15.5047 12.7174Z" fill="black" style="mix-blend-mode:overlay"/>
<path d="M15.5047 12.7174L8.76737 15.5552C8.22137 15.7851 7.58924 15.5822 7.27911 15.0774L5.83335 12.7242L15.5047 12.7174Z" stroke="black" stroke-width="1.2" stroke-linejoin="round"/>
<rect x="5.84033" y="39.7693" width="9.75908" height="16.8659" rx="1.56" transform="rotate(-90 5.84033 39.7693)" fill="white"/>
<rect x="10.4778" y="39.6416" width="9.2989" height="12.1313" rx="1.2" transform="rotate(-90 10.4778 39.6416)" fill="white"/>
<rect x="5.84033" y="39.7693" width="9.75908" height="16.8659" rx="1.56" transform="rotate(-90 5.84033 39.7693)" stroke="black" stroke-width="1.2"/>
<path d="M9.96992 30.0103L12.8077 36.7476C13.0376 37.2936 12.8347 37.9258 12.3299 38.2359L9.97668 39.6817L9.96992 30.0103Z" fill="black" style="mix-blend-mode:overlay"/>
<path d="M9.96992 30.0103L12.8077 36.7476C13.0376 37.2936 12.8347 37.9258 12.3299 38.2359L9.97668 39.6817L9.96992 30.0103Z" stroke="black" stroke-width="1.2" stroke-linejoin="round"/>
</svg>
