<svg width="48" height="49" viewBox="0 0 48 49" fill="none" xmlns="http://www.w3.org/2000/svg">
<path d="M11.2432 13.9706C11.2432 10.6523 11.2432 8.9932 11.8889 7.72579C12.457 6.61094 13.3634 5.70454 14.4782 5.1365C15.7456 4.49072 17.4048 4.49072 20.7231 4.49072H26.2772C29.5955 4.49072 31.2546 4.49072 32.522 5.1365C33.6369 5.70454 34.5433 6.61094 35.1113 7.72579C35.7571 8.9932 35.7571 10.6523 35.7571 13.9706V34.0844C35.7571 37.4026 35.7571 39.0618 35.1113 40.3292C34.5433 41.444 33.6369 42.3504 32.522 42.9185C31.2546 43.5643 29.5955 43.5643 26.2772 43.5643H11.2432V13.9706Z" fill="#FF983E"/>
<path d="M11.2432 42.5643V13.9706C11.2432 10.6523 11.2432 8.9932 11.8889 7.72579C12.457 6.61094 13.3634 5.70454 14.4782 5.1365C15.7456 4.49072 17.4048 4.49072 20.7231 4.49072H27.2772C30.5955 4.49072 32.2546 4.49072 33.522 5.1365C34.6369 5.70454 35.5433 6.61094 36.1113 7.72579C36.7571 8.9932 36.7571 10.6523 36.7571 13.9706V33.0844C36.7571 36.4026 36.7571 38.0618 36.1113 39.3292C35.5433 40.444 34.6369 41.3504 33.522 41.9185C32.2546 42.5643 30.5955 42.5643 27.2772 42.5643H20.1167" stroke="black" stroke-width="2" stroke-linecap="round"/>
<rect x="15.5381" y="9.08789" width="9.75908" height="16.8659" rx="1.56" fill="white"/>
<rect x="15.6658" y="13.7253" width="9.2989" height="12.1313" rx="1.2" fill="white"/>
<rect x="15.5381" y="9.08789" width="9.75908" height="16.8659" rx="1.56" stroke="black" stroke-width="1.2"/>
<path d="M25.297 13.2175L18.5596 16.0553C18.0136 16.2853 17.3815 16.0823 17.0713 15.5775L15.6256 13.2243L25.297 13.2175Z" fill="black" style="mix-blend-mode:overlay"/>
<path d="M25.297 13.2175L18.5596 16.0553C18.0136 16.2853 17.3815 16.0823 17.0713 15.5775L15.6256 13.2243L25.297 13.2175Z" stroke="black" stroke-width="1.2" stroke-linejoin="round"/>
</svg>
